<?xml version="1.0" encoding="utf-8" ?>
<svg baseProfile="full" height="199" version="1.1" width="198" xmlns="http://www.w3.org/2000/svg" xmlns:ev="http://www.w3.org/2001/xml-events" xmlns:xlink="http://www.w3.org/1999/xlink"><defs /><path d="M 29.0,20.998039215686276 L 28.0,20.998039215686276 L 27.0,20.998039215686276 L 26.0,20.998039215686276 L 25.0,20.998039215686276 L 24.0,20.998039215686276 L 23.0,20.998039215686276 L 22.0,20.998039215686276 L 21.0,20.998039215686276 L 20.0,20.998039215686276 L 19.001960784313727,20.0 L 20.0,19.001960784313727 L 21.0,19.001960784313727 L 22.0,19.001960784313727 L 23.0,19.001960784313727 L 24.0,19.001960784313727 L 25.0,19.001960784313727 L 26.0,19.001960784313727 L 27.0,19.001960784313727 L 28.0,19.001960784313727 L 29.0,19.001960784313727 L 29.998039215686276,20.0 L 29.0,20.998039215686276" fill="none" stroke="black" stroke-width="1" /><path d="M 19.0,21.998039215686276 L 18.0,21.998039215686276 L 17.0,21.998039215686276 L 16.0,21.998039215686276 L 15.001960784313725,21.0 L 16.0,20.001960784313727 L 17.0,20.001960784313727 L 18.0,20.001960784313727 L 19.0,20.001960784313727 L 19.998039215686276,21.0 L 19.0,21.998039215686276" fill="none" stroke="black" stroke-width="1" /><path d="M 33.0,21.998039215686276 L 32.0,21.998039215686276 L 31.0,21.998039215686276 L 30.0,21.998039215686276 L 29.001960784313727,21.0 L 30.0,20.001960784313727 L 31.0,20.001960784313727 L 32.0,20.001960784313727 L 33.0,20.001960784313727 L 33.998039215686276,21.0 L 33.0,21.998039215686276" fill="none" stroke="black" stroke-width="1" /><path d="M 160.0,23.998039215686276 L 159.0,23.998039215686276 L 158.00196078431372,23.0 L 159.0,22.001960784313727 L 159.00196078431372,22.0 L 160.0,21.001960784313727 L 161.0,21.001960784313727 L 161.00196078431372,21.0 L 162.0,20.001960784313727 L 163.0,20.001960784313727 L 164.0,20.001960784313727 L 165.0,20.001960784313727 L 166.0,20.001960784313727 L 167.0,20.001960784313727 L 168.0,20.001960784313727 L 169.0,20.001960784313727 L 170.0,20.001960784313727 L 171.0,20.001960784313727 L 172.0,20.001960784313727 L 173.0,20.001960784313727 L 174.0,20.001960784313727 L 175.0,20.001960784313727 L 175.99803921568628,21.0 L 175.0,21.998039215686276 L 174.0,21.998039215686276 L 173.0,21.998039215686276 L 172.0,21.998039215686276 L 171.0,21.998039215686276 L 170.0,21.998039215686276 L 169.0,21.998039215686276 L 168.0,21.998039215686276 L 167.0,21.998039215686276 L 166.0,21.998039215686276 L 165.0,21.998039215686276 L 164.0,21.998039215686276 L 163.0,21.998039215686276 L 162.99803921568628,22.0 L 162.0,22.998039215686276 L 161.0,22.998039215686276 L 160.99803921568628,23.0 L 160.0,23.998039215686276" fill="none" stroke="black" stroke-width="1" /><path d="M 6.0,32.998039215686276 L 5.0019607843137255,32.0 L 5.0019607843137255,31.0 L 5.0019607843137255,30.0 L 6.0,29.001960784313727 L 6.0019607843137255,29.0 L 6.0019607843137255,28.0 L 7.0,27.001960784313727 L 7.0019607843137255,27.0 L 8.0,26.001960784313727 L 8.001960784313725,26.0 L 9.0,25.001960784313727 L 9.001960784313725,25.0 L 10.0,24.001960784313727 L 10.001960784313725,24.0 L 11.0,23.001960784313727 L 11.001960784313725,23.0 L 12.0,22.001960784313727 L 13.0,22.001960784313727 L 13.001960784313725,22.0 L 14.0,21.001960784313727 L 15.0,21.001960784313727 L 15.998039215686275,22.0 L 15.0,22.998039215686276 L 14.998039215686275,23.0 L 14.0,23.998039215686276 L 13.0,23.998039215686276 L 12.998039215686275,24.0 L 12.0,24.998039215686276 L 11.998039215686275,25.0 L 11.0,25.998039215686276 L 10.998039215686275,26.0 L 10.0,26.998039215686276 L 9.998039215686275,27.0 L 9.0,27.998039215686276 L 8.998039215686275,28.0 L 8.0,28.998039215686276 L 7.9980392156862745,29.0 L 7.9980392156862745,30.0 L 7.0,30.998039215686276 L 6.9980392156862745,31.0 L 6.9980392156862745,32.0 L 6.0,32.998039215686276" fill="none" stroke="black" stroke-width="1" /><path d="M 37.0,22.998039215686276 L 36.0,22.998039215686276 L 35.0,22.998039215686276 L 34.0,22.998039215686276 L 33.001960784313724,22.0 L 34.0,21.001960784313727 L 35.0,21.001960784313727 L 36.0,21.001960784313727 L 37.0,21.001960784313727 L 37.998039215686276,22.0 L 37.0,22.998039215686276" fill="none" stroke="black" stroke-width="1" /><path d="M 180.0,22.998039215686276 L 179.0,22.998039215686276 L 178.0,22.998039215686276 L 177.0,22.998039215686276 L 176.0,22.998039215686276 L 175.00196078431372,22.0 L 176.0,21.001960784313727 L 177.0,21.001960784313727 L 178.0,21.001960784313727 L 179.0,21.001960784313727 L 180.0,21.001960784313727 L 180.99803921568628,22.0 L 180.0,22.998039215686276" fill="none" stroke="black" stroke-width="1" /><path d="M 39.0,23.998039215686276 L 38.0,23.998039215686276 L 37.001960784313724,23.0 L 38.0,22.001960784313727 L 39.0,22.001960784313727 L 39.998039215686276,23.0 L 39.0,23.998039215686276" fill="none" stroke="black" stroke-width="1" /><path d="M 182.0,23.998039215686276 L 181.0,23.998039215686276 L 180.00196078431372,23.0 L 181.0,22.001960784313727 L 182.0,22.001960784313727 L 182.99803921568628,23.0 L 182.0,23.998039215686276" fill="none" stroke="black" stroke-width="1" /><path d="M 58.0,33.998039215686276 L 57.0,33.998039215686276 L 56.001960784313724,33.0 L 56.0,32.998039215686276 L 55.001960784313724,32.0 L 55.0,31.998039215686276 L 54.0,31.998039215686276 L 53.001960784313724,31.0 L 53.0,30.998039215686276 L 52.0,30.998039215686276 L 51.001960784313724,30.0 L 51.0,29.998039215686276 L 50.0,29.998039215686276 L 49.001960784313724,29.0 L 49.0,28.998039215686276 L 48.001960784313724,28.0 L 48.0,27.998039215686276 L 47.0,27.998039215686276 L 46.0,27.998039215686276 L 45.001960784313724,27.0 L 45.0,26.998039215686276 L 44.001960784313724,26.0 L 44.0,25.998039215686276 L 43.0,25.998039215686276 L 42.0,25.998039215686276 L 41.001960784313724,25.0 L 41.0,24.998039215686276 L 40.0,24.998039215686276 L 39.001960784313724,24.0 L 40.0,23.001960784313727 L 41.0,23.001960784313727 L 42.0,23.001960784313727 L 42.998039215686276,24.0 L 43.0,24.001960784313727 L 44.0,24.001960784313727 L 45.0,24.001960784313727 L 45.998039215686276,25.0 L 46.0,25.001960784313727 L 46.998039215686276,26.0 L 47.0,26.001960784313727 L 48.0,26.001960784313727 L 49.0,26.001960784313727 L 49.998039215686276,27.0 L 50.0,27.001960784313727 L 50.998039215686276,28.0 L 51.0,28.001960784313727 L 52.0,28.001960784313727 L 52.998039215686276,29.0 L 53.0,29.001960784313727 L 54.0,29.001960784313727 L 54.998039215686276,30.0 L 55.0,30.001960784313727 L 56.0,30.001960784313727 L 56.998039215686276,31.0 L 57.0,31.001960784313727 L 57.998039215686276,32.0 L 58.0,32.001960784313724 L 58.998039215686276,33.0 L 58.0,33.998039215686276" fill="none" stroke="black" stroke-width="1" /><path d="M 179.0,39.998039215686276 L 178.00196078431372,39.0 L 178.00196078431372,38.0 L 178.00196078431372,37.0 L 178.00196078431372,36.0 L 178.00196078431372,35.0 L 178.00196078431372,34.0 L 178.00196078431372,33.0 L 178.00196078431372,32.0 L 178.0,31.998039215686276 L 177.00196078431372,31.0 L 177.00196078431372,30.0 L 177.0,29.998039215686276 L 176.00196078431372,29.0 L 176.0,28.998039215686276 L 175.00196078431372,28.0 L 175.0,27.998039215686276 L 174.00196078431372,27.0 L 174.0,26.998039215686276 L 173.0,26.998039215686276 L 172.00196078431372,26.0 L 172.0,25.998039215686276 L 171.0,25.998039215686276 L 170.00196078431372,25.0 L 170.0,24.998039215686276 L 169.0,24.998039215686276 L 168.0,24.998039215686276 L 167.0,24.998039215686276 L 166.00196078431372,24.0 L 167.0,23.001960784313727 L 168.0,23.001960784313727 L 169.0,23.001960784313727 L 170.0,23.001960784313727 L 171.0,23.001960784313727 L 171.99803921568628,24.0 L 172.0,24.001960784313727 L 173.0,24.001960784313727 L 173.99803921568628,25.0 L 174.0,25.001960784313727 L 175.0,25.001960784313727 L 175.99803921568628,26.0 L 176.0,26.001960784313727 L 176.99803921568628,27.0 L 177.0,27.001960784313727 L 177.99803921568628,28.0 L 178.0,28.001960784313727 L 178.99803921568628,29.0 L 178.99803921568628,30.0 L 179.0,30.001960784313727 L 179.99803921568628,31.0 L 179.99803921568628,32.0 L 179.99803921568628,33.0 L 179.99803921568628,34.0 L 179.99803921568628,35.0 L 179.99803921568628,36.0 L 179.99803921568628,37.0 L 179.99803921568628,38.0 L 179.99803921568628,39.0 L 179.0,39.998039215686276" fill="none" stroke="black" stroke-width="1" /><path d="M 191.0,33.998039215686276 L 190.00196078431372,33.0 L 190.00196078431372,32.0 L 190.0,31.998039215686276 L 189.00196078431372,31.0 L 189.00196078431372,30.0 L 189.0,29.998039215686276 L 188.00196078431372,29.0 L 188.0,28.998039215686276 L 187.00196078431372,28.0 L 187.0,27.998039215686276 L 186.00196078431372,27.0 L 186.0,26.998039215686276 L 185.00196078431372,26.0 L 185.0,25.998039215686276 L 184.0,25.998039215686276 L 183.00196078431372,25.0 L 183.0,24.998039215686276 L 182.00196078431372,24.0 L 183.0,23.001960784313727 L 184.0,23.001960784313727 L 184.99803921568628,24.0 L 185.0,24.001960784313727 L 186.0,24.001960784313727 L 186.99803921568628,25.0 L 187.0,25.001960784313727 L 187.99803921568628,26.0 L 188.0,26.001960784313727 L 188.99803921568628,27.0 L 189.0,27.001960784313727 L 189.99803921568628,28.0 L 190.0,28.001960784313727 L 190.99803921568628,29.0 L 190.99803921568628,30.0 L 191.0,30.001960784313727 L 191.99803921568628,31.0 L 191.99803921568628,32.0 L 191.99803921568628,33.0 L 191.0,33.998039215686276" fill="none" stroke="black" stroke-width="1" /><path d="M 160.0,25.998039215686276 L 159.0,25.998039215686276 L 158.0,25.998039215686276 L 157.0,25.998039215686276 L 156.00196078431372,25.0 L 157.0,24.001960784313727 L 158.0,24.001960784313727 L 159.0,24.001960784313727 L 160.0,24.001960784313727 L 160.99803921568628,25.0 L 160.0,25.998039215686276" fill="none" stroke="black" stroke-width="1" /><path d="M 156.0,26.998039215686276 L 155.0,26.998039215686276 L 154.0,26.998039215686276 L 153.0,26.998039215686276 L 152.00196078431372,26.0 L 153.0,25.001960784313727 L 154.0,25.001960784313727 L 155.0,25.001960784313727 L 156.0,25.001960784313727 L 156.99803921568628,26.0 L 156.0,26.998039215686276" fill="none" stroke="black" stroke-width="1" /><path d="M 165.0,26.998039215686276 L 164.0,26.998039215686276 L 163.0,26.998039215686276 L 162.0,26.998039215686276 L 161.0,26.998039215686276 L 160.00196078431372,26.0 L 161.0,25.001960784313727 L 162.0,25.001960784313727 L 163.0,25.001960784313727 L 164.0,25.001960784313727 L 165.0,25.001960784313727 L 165.99803921568628,26.0 L 165.0,26.998039215686276" fill="none" stroke="black" stroke-width="1" /><path d="M 152.0,27.998039215686276 L 151.0,27.998039215686276 L 150.0,27.998039215686276 L 149.00196078431372,27.0 L 150.0,26.001960784313727 L 151.0,26.001960784313727 L 152.0,26.001960784313727 L 152.99803921568628,27.0 L 152.0,27.998039215686276" fill="none" stroke="black" stroke-width="1" /><path d="M 175.0,32.998039215686276 L 174.00196078431372,32.0 L 174.0,31.998039215686276 L 173.00196078431372,31.0 L 173.0,30.998039215686276 L 172.00196078431372,30.0 L 172.0,29.998039215686276 L 171.00196078431372,29.0 L 171.0,28.998039215686276 L 170.0,28.998039215686276 L 169.0,28.998039215686276 L 168.00196078431372,28.0 L 168.0,27.998039215686276 L 167.0,27.998039215686276 L 166.0,27.998039215686276 L 165.00196078431372,27.0 L 166.0,26.001960784313727 L 167.0,26.001960784313727 L 168.0,26.001960784313727 L 169.0,26.001960784313727 L 169.99803921568628,27.0 L 170.0,27.001960784313727 L 171.0,27.001960784313727 L 172.0,27.001960784313727 L 172.99803921568628,28.0 L 173.0,28.001960784313727 L 173.99803921568628,29.0 L 174.0,29.001960784313727 L 174.99803921568628,30.0 L 175.0,30.001960784313727 L 175.99803921568628,31.0 L 175.99803921568628,32.0 L 175.0,32.998039215686276" fill="none" stroke="black" stroke-width="1" /><path d="M 99.0,73.99803921568628 L 98.00196078431372,73.0 L 98.00196078431372,72.0 L 98.00196078431372,71.0 L 99.0,70.00196078431372 L 99.00196078431372,70.0 L 100.0,69.00196078431372 L 100.00196078431372,69.0 L 100.00196078431372,68.0 L 101.0,67.00196078431372 L 101.00196078431372,67.0 L 102.0,66.00196078431372 L 102.00196078431372,66.0 L 103.0,65.00196078431372 L 103.00196078431372,65.0 L 103.00196078431372,64.0 L 104.0,63.001960784313724 L 104.00196078431372,63.0 L 105.0,62.001960784313724 L 105.00196078431372,62.0 L 106.0,61.001960784313724 L 106.00196078431372,61.0 L 106.00196078431372,60.0 L 107.0,59.001960784313724 L 107.00196078431372,59.0 L 108.0,58.001960784313724 L 108.00196078431372,58.0 L 109.0,57.001960784313724 L 109.00196078431372,57.0 L 110.0,56.001960784313724 L 110.00196078431372,56.0 L 111.0,55.001960784313724 L 111.00196078431372,55.0 L 112.0,54.001960784313724 L 112.00196078431372,54.0 L 113.0,53.001960784313724 L 113.00196078431372,53.0 L 114.0,52.001960784313724 L 114.00196078431372,52.0 L 115.0,51.001960784313724 L 115.00196078431372,51.0 L 115.00196078431372,50.0 L 116.0,49.001960784313724 L 117.0,49.001960784313724 L 117.00196078431372,49.0 L 118.0,48.001960784313724 L 118.00196078431372,48.0 L 119.0,47.001960784313724 L 119.00196078431372,47.0 L 120.0,46.001960784313724 L 120.00196078431372,46.0 L 121.0,45.001960784313724 L 121.00196078431372,45.0 L 122.0,44.001960784313724 L 122.00196078431372,44.0 L 123.0,43.001960784313724 L 123.00196078431372,43.0 L 124.0,42.001960784313724 L 124.00196078431372,42.0 L 125.0,41.001960784313724 L 126.0,41.001960784313724 L 126.00196078431372,41.0 L 127.0,40.001960784313724 L 127.00196078431372,40.0 L 128.0,39.001960784313724 L 128.00196078431372,39.0 L 129.0,38.001960784313724 L 130.0,38.001960784313724 L 130.00196078431372,38.0 L 131.0,37.001960784313724 L 131.00196078431372,37.0 L 132.0,36.001960784313724 L 132.00196078431372,36.0 L 133.0,35.001960784313724 L 134.0,35.001960784313724 L 134.00196078431372,35.0 L 135.0,34.001960784313724 L 135.00196078431372,34.0 L 136.0,33.001960784313724 L 137.0,33.001960784313724 L 137.00196078431372,33.0 L 138.0,32.001960784313724 L 139.0,32.001960784313724 L 139.00196078431372,32.0 L 140.0,31.001960784313727 L 140.00196078431372,31.0 L 141.0,30.001960784313727 L 142.0,30.001960784313727 L 142.00196078431372,30.0 L 143.0,29.001960784313727 L 144.0,29.001960784313727 L 144.00196078431372,29.0 L 145.0,28.001960784313727 L 146.0,28.001960784313727 L 146.00196078431372,28.0 L 147.0,27.001960784313727 L 148.0,27.001960784313727 L 149.0,27.001960784313727 L 149.99803921568628,28.0 L 149.0,28.998039215686276 L 148.0,28.998039215686276 L 147.99803921568628,29.0 L 147.0,29.998039215686276 L 146.0,29.998039215686276 L 145.99803921568628,30.0 L 145.0,30.998039215686276 L 144.0,30.998039215686276 L 143.99803921568628,31.0 L 143.0,31.998039215686276 L 142.0,31.998039215686276 L 141.99803921568628,32.0 L 141.0,32.998039215686276 L 140.99803921568628,33.0 L 140.0,33.998039215686276 L 139.0,33.998039215686276 L 138.99803921568628,34.0 L 138.0,34.998039215686276 L 137.0,34.998039215686276 L 136.99803921568628,35.0 L 136.0,35.998039215686276 L 135.99803921568628,36.0 L 135.0,36.998039215686276 L 134.0,36.998039215686276 L 133.99803921568628,37.0 L 133.0,37.998039215686276 L 132.99803921568628,38.0 L 132.0,38.998039215686276 L 131.99803921568628,39.0 L 131.0,39.998039215686276 L 130.0,39.998039215686276 L 129.99803921568628,40.0 L 129.0,40.998039215686276 L 128.99803921568628,41.0 L 128.0,41.998039215686276 L 127.99803921568628,42.0 L 127.0,42.998039215686276 L 126.0,42.998039215686276 L 125.99803921568628,43.0 L 125.0,43.998039215686276 L 124.99803921568628,44.0 L 124.0,44.998039215686276 L 123.99803921568628,45.0 L 123.0,45.998039215686276 L 122.99803921568628,46.0 L 122.0,46.998039215686276 L 121.99803921568628,47.0 L 121.0,47.998039215686276 L 120.99803921568628,48.0 L 120.0,48.998039215686276 L 119.99803921568628,49.0 L 119.0,49.998039215686276 L 118.99803921568628,50.0 L 118.0,50.998039215686276 L 117.0,50.998039215686276 L 116.99803921568628,51.0 L 116.99803921568628,52.0 L 116.0,52.998039215686276 L 115.99803921568628,53.0 L 115.0,53.998039215686276 L 114.99803921568628,54.0 L 114.0,54.998039215686276 L 113.99803921568628,55.0 L 113.0,55.998039215686276 L 112.99803921568628,56.0 L 112.0,56.998039215686276 L 111.99803921568628,57.0 L 111.0,57.998039215686276 L 110.99803921568628,58.0 L 110.0,58.998039215686276 L 109.99803921568628,59.0 L 109.0,59.998039215686276 L 108.99803921568628,60.0 L 108.0,60.998039215686276 L 107.99803921568628,61.0 L 107.99803921568628,62.0 L 107.0,62.998039215686276 L 106.99803921568628,63.0 L 106.0,63.998039215686276 L 105.99803921568628,64.0 L 105.0,64.99803921568628 L 104.99803921568628,65.0 L 104.99803921568628,66.0 L 104.0,66.99803921568628 L 103.99803921568628,67.0 L 103.0,67.99803921568628 L 102.99803921568628,68.0 L 102.0,68.99803921568628 L 101.99803921568628,69.0 L 101.99803921568628,70.0 L 101.0,70.99803921568628 L 100.99803921568628,71.0 L 100.0,71.99803921568628 L 99.99803921568628,72.0 L 99.99803921568628,73.0 L 99.0,73.99803921568628" fill="none" stroke="black" stroke-width="1" /><path d="M 26.0,32.998039215686276 L 25.0,32.998039215686276 L 24.0,32.998039215686276 L 23.0,32.998039215686276 L 22.0,32.998039215686276 L 21.0,32.998039215686276 L 20.0,32.998039215686276 L 19.001960784313727,32.0 L 20.0,31.001960784313727 L 21.0,31.001960784313727 L 22.0,31.001960784313727 L 23.0,31.001960784313727 L 24.0,31.001960784313727 L 25.0,31.001960784313727 L 26.0,31.001960784313727 L 26.998039215686276,32.0 L 26.0,32.998039215686276" fill="none" stroke="black" stroke-width="1" /><path d="M 5.0,41.998039215686276 L 4.0019607843137255,41.0 L 4.0019607843137255,40.0 L 4.0019607843137255,39.0 L 4.0019607843137255,38.0 L 4.0019607843137255,37.0 L 4.0019607843137255,36.0 L 4.0019607843137255,35.0 L 4.0019607843137255,34.0 L 4.0019607843137255,33.0 L 5.0,32.001960784313724 L 5.9980392156862745,33.0 L 5.9980392156862745,34.0 L 5.9980392156862745,35.0 L 5.9980392156862745,36.0 L 5.9980392156862745,37.0 L 5.9980392156862745,38.0 L 5.9980392156862745,39.0 L 5.9980392156862745,40.0 L 5.9980392156862745,41.0 L 5.0,41.998039215686276" fill="none" stroke="black" stroke-width="1" /><path d="M 30.0,33.998039215686276 L 29.0,33.998039215686276 L 28.0,33.998039215686276 L 27.0,33.998039215686276 L 26.001960784313727,33.0 L 27.0,32.001960784313724 L 28.0,32.001960784313724 L 29.0,32.001960784313724 L 30.0,32.001960784313724 L 30.998039215686276,33.0 L 30.0,33.998039215686276" fill="none" stroke="black" stroke-width="1" /><path d="M 19.0,41.998039215686276 L 18.001960784313727,41.0 L 18.001960784313727,40.0 L 18.001960784313727,39.0 L 18.001960784313727,38.0 L 18.001960784313727,37.0 L 18.001960784313727,36.0 L 18.001960784313727,35.0 L 18.001960784313727,34.0 L 19.0,33.001960784313724 L 19.998039215686276,34.0 L 19.998039215686276,35.0 L 19.998039215686276,36.0 L 19.998039215686276,37.0 L 19.998039215686276,38.0 L 19.998039215686276,39.0 L 19.998039215686276,40.0 L 19.998039215686276,41.0 L 19.0,41.998039215686276" fill="none" stroke="black" stroke-width="1" /><path d="M 33.0,34.998039215686276 L 32.0,34.998039215686276 L 31.0,34.998039215686276 L 30.001960784313727,34.0 L 31.0,33.001960784313724 L 32.0,33.001960784313724 L 33.0,33.001960784313724 L 33.998039215686276,34.0 L 33.0,34.998039215686276" fill="none" stroke="black" stroke-width="1" /><path d="M 77.0,47.998039215686276 L 76.0,47.998039215686276 L 75.00196078431372,47.0 L 75.0,46.998039215686276 L 74.00196078431372,46.0 L 74.0,45.998039215686276 L 73.00196078431372,45.0 L 73.0,44.998039215686276 L 72.00196078431372,44.0 L 72.0,43.998039215686276 L 71.00196078431372,43.0 L 71.0,42.998039215686276 L 70.0,42.998039215686276 L 69.00196078431372,42.0 L 69.0,41.998039215686276 L 68.00196078431372,41.0 L 68.0,40.998039215686276 L 67.00196078431372,40.0 L 67.0,39.998039215686276 L 66.0,39.998039215686276 L 65.00196078431372,39.0 L 65.0,38.998039215686276 L 64.00196078431372,38.0 L 64.0,37.998039215686276 L 63.0,37.998039215686276 L 62.001960784313724,37.0 L 62.0,36.998039215686276 L 61.001960784313724,36.0 L 61.0,35.998039215686276 L 60.0,35.998039215686276 L 59.001960784313724,35.0 L 59.0,34.998039215686276 L 58.001960784313724,34.0 L 59.0,33.001960784313724 L 60.0,33.001960784313724 L 60.998039215686276,34.0 L 61.0,34.001960784313724 L 62.0,34.001960784313724 L 62.998039215686276,35.0 L 63.0,35.001960784313724 L 63.998039215686276,36.0 L 64.0,36.001960784313724 L 65.0,36.001960784313724 L 65.99803921568628,37.0 L 66.0,37.001960784313724 L 66.99803921568628,38.0 L 67.0,38.001960784313724 L 68.0,38.001960784313724 L 68.99803921568628,39.0 L 69.0,39.001960784313724 L 69.99803921568628,40.0 L 70.0,40.001960784313724 L 70.99803921568628,41.0 L 71.0,41.001960784313724 L 72.0,41.001960784313724 L 72.99803921568628,42.0 L 73.0,42.001960784313724 L 73.99803921568628,43.0 L 74.0,43.001960784313724 L 74.99803921568628,44.0 L 75.0,44.001960784313724 L 75.99803921568628,45.0 L 76.0,45.001960784313724 L 76.99803921568628,46.0 L 77.0,46.001960784313724 L 77.99803921568628,47.0 L 77.0,47.998039215686276" fill="none" stroke="black" stroke-width="1" /><path d="M 173.0,34.998039215686276 L 172.0,34.998039215686276 L 171.0,34.998039215686276 L 170.0,34.998039215686276 L 169.0,34.998039215686276 L 168.0,34.998039215686276 L 167.0,34.998039215686276 L 166.0,34.998039215686276 L 165.0,34.998039215686276 L 164.00196078431372,34.0 L 165.0,33.001960784313724 L 166.0,33.001960784313724 L 167.0,33.001960784313724 L 168.0,33.001960784313724 L 169.0,33.001960784313724 L 170.0,33.001960784313724 L 171.0,33.001960784313724 L 172.0,33.001960784313724 L 173.0,33.001960784313724 L 173.99803921568628,34.0 L 173.0,34.998039215686276" fill="none" stroke="black" stroke-width="1" /><path d="M 176.0,35.998039215686276 L 175.0,35.998039215686276 L 174.0,35.998039215686276 L 173.00196078431372,35.0 L 174.0,34.001960784313724 L 175.0,34.001960784313724 L 175.00196078431372,34.0 L 176.0,33.001960784313724 L 176.99803921568628,34.0 L 176.99803921568628,35.0 L 176.0,35.998039215686276" fill="none" stroke="black" stroke-width="1" /><path d="M 192.0,43.998039215686276 L 191.00196078431372,43.0 L 191.00196078431372,42.0 L 191.00196078431372,41.0 L 191.00196078431372,40.0 L 191.00196078431372,39.0 L 191.00196078431372,38.0 L 191.00196078431372,37.0 L 191.00196078431372,36.0 L 191.00196078431372,35.0 L 191.00196078431372,34.0 L 192.0,33.001960784313724 L 192.99803921568628,34.0 L 192.99803921568628,35.0 L 192.99803921568628,36.0 L 192.99803921568628,37.0 L 192.99803921568628,38.0 L 192.99803921568628,39.0 L 192.99803921568628,40.0 L 192.99803921568628,41.0 L 192.99803921568628,42.0 L 192.99803921568628,43.0 L 192.0,43.998039215686276" fill="none" stroke="black" stroke-width="1" /><path d="M 15.0,46.998039215686276 L 14.001960784313725,46.0 L 14.001960784313725,45.0 L 14.001960784313725,44.0 L 14.001960784313725,43.0 L 14.001960784313725,42.0 L 14.001960784313725,41.0 L 14.001960784313725,40.0 L 14.001960784313725,39.0 L 14.001960784313725,38.0 L 14.001960784313725,37.0 L 15.0,36.001960784313724 L 15.001960784313725,36.0 L 16.0,35.001960784313724 L 16.001960784313727,35.0 L 17.0,34.001960784313724 L 17.998039215686276,35.0 L 17.998039215686276,36.0 L 17.0,36.998039215686276 L 16.998039215686276,37.0 L 16.0,37.998039215686276 L 15.998039215686275,38.0 L 15.998039215686275,39.0 L 15.998039215686275,40.0 L 15.998039215686275,41.0 L 15.998039215686275,42.0 L 15.998039215686275,43.0 L 15.998039215686275,44.0 L 15.998039215686275,45.0 L 15.998039215686275,46.0 L 15.0,46.998039215686276" fill="none" stroke="black" stroke-width="1" /><path d="M 35.0,35.998039215686276 L 34.0,35.998039215686276 L 33.001960784313724,35.0 L 34.0,34.001960784313724 L 35.0,34.001960784313724 L 35.998039215686276,35.0 L 35.0,35.998039215686276" fill="none" stroke="black" stroke-width="1" /><path d="M 164.0,35.998039215686276 L 163.0,35.998039215686276 L 162.0,35.998039215686276 L 161.00196078431372,35.0 L 162.0,34.001960784313724 L 163.0,34.001960784313724 L 164.0,34.001960784313724 L 164.99803921568628,35.0 L 164.0,35.998039215686276" fill="none" stroke="black" stroke-width="1" /><path d="M 41.0,37.998039215686276 L 40.0,37.998039215686276 L 39.0,37.998039215686276 L 38.001960784313724,37.0 L 38.0,36.998039215686276 L 37.0,36.998039215686276 L 36.0,36.998039215686276 L 35.001960784313724,36.0 L 36.0,35.001960784313724 L 37.0,35.001960784313724 L 38.0,35.001960784313724 L 39.0,35.001960784313724 L 39.998039215686276,36.0 L 40.0,36.001960784313724 L 41.0,36.001960784313724 L 41.998039215686276,37.0 L 41.0,37.998039215686276" fill="none" stroke="black" stroke-width="1" /><path d="M 113.0,73.99803921568628 L 112.00196078431372,73.0 L 112.00196078431372,72.0 L 113.0,71.00196078431372 L 114.0,71.00196078431372 L 114.00196078431372,71.0 L 115.0,70.00196078431372 L 115.00196078431372,70.0 L 116.0,69.00196078431372 L 116.00196078431372,69.0 L 116.00196078431372,68.0 L 117.0,67.00196078431372 L 117.00196078431372,67.0 L 118.0,66.00196078431372 L 118.00196078431372,66.0 L 119.0,65.00196078431372 L 119.00196078431372,65.0 L 120.0,64.00196078431372 L 120.00196078431372,64.0 L 121.0,63.001960784313724 L 121.00196078431372,63.0 L 122.0,62.001960784313724 L 122.00196078431372,62.0 L 123.0,61.001960784313724 L 123.00196078431372,61.0 L 124.0,60.001960784313724 L 124.00196078431372,60.0 L 125.0,59.001960784313724 L 125.00196078431372,59.0 L 126.0,58.001960784313724 L 126.00196078431372,58.0 L 127.0,57.001960784313724 L 127.00196078431372,57.0 L 128.0,56.001960784313724 L 128.00196078431372,56.0 L 129.0,55.001960784313724 L 129.00196078431372,55.0 L 130.0,54.001960784313724 L 130.00196078431372,54.0 L 131.0,53.001960784313724 L 131.00196078431372,53.0 L 132.0,52.001960784313724 L 133.0,52.001960784313724 L 133.00196078431372,52.0 L 134.0,51.001960784313724 L 134.00196078431372,51.0 L 135.0,50.001960784313724 L 135.00196078431372,50.0 L 136.0,49.001960784313724 L 136.00196078431372,49.0 L 137.0,48.001960784313724 L 138.0,48.001960784313724 L 138.00196078431372,48.0 L 139.0,47.001960784313724 L 139.00196078431372,47.0 L 140.0,46.001960784313724 L 140.00196078431372,46.0 L 141.0,45.001960784313724 L 142.0,45.001960784313724 L 142.00196078431372,45.0 L 143.0,44.001960784313724 L 143.00196078431372,44.0 L 144.0,43.001960784313724 L 145.0,43.001960784313724 L 145.00196078431372,43.0 L 146.0,42.001960784313724 L 146.00196078431372,42.0 L 147.0,41.001960784313724 L 148.0,41.001960784313724 L 148.00196078431372,41.0 L 149.0,40.001960784313724 L 150.0,40.001960784313724 L 150.00196078431372,40.0 L 151.0,39.001960784313724 L 152.0,39.001960784313724 L 152.00196078431372,39.0 L 153.0,38.001960784313724 L 153.00196078431372,38.0 L 154.0,37.001960784313724 L 155.0,37.001960784313724 L 156.0,37.001960784313724 L 156.00196078431372,37.0 L 157.0,36.001960784313724 L 158.0,36.001960784313724 L 158.00196078431372,36.0 L 159.0,35.001960784313724 L 160.0,35.001960784313724 L 161.0,35.001960784313724 L 161.99803921568628,36.0 L 161.0,36.998039215686276 L 160.0,36.998039215686276 L 159.99803921568628,37.0 L 159.0,37.998039215686276 L 158.0,37.998039215686276 L 157.99803921568628,38.0 L 157.0,38.998039215686276 L 156.0,38.998039215686276 L 155.0,38.998039215686276 L 154.99803921568628,39.0 L 154.0,39.998039215686276 L 153.99803921568628,40.0 L 153.0,40.998039215686276 L 152.0,40.998039215686276 L 151.99803921568628,41.0 L 151.0,41.998039215686276 L 150.0,41.998039215686276 L 149.99803921568628,42.0 L 149.0,42.998039215686276 L 148.0,42.998039215686276 L 147.99803921568628,43.0 L 147.0,43.998039215686276 L 146.99803921568628,44.0 L 146.0,44.998039215686276 L 145.0,44.998039215686276 L 144.99803921568628,45.0 L 144.0,45.998039215686276 L 143.99803921568628,46.0 L 143.0,46.998039215686276 L 142.0,46.998039215686276 L 141.99803921568628,47.0 L 141.0,47.998039215686276 L 140.99803921568628,48.0 L 140.0,48.998039215686276 L 139.99803921568628,49.0 L 139.0,49.998039215686276 L 138.0,49.998039215686276 L 137.99803921568628,50.0 L 137.0,50.998039215686276 L 136.99803921568628,51.0 L 136.0,51.998039215686276 L 135.99803921568628,52.0 L 135.0,52.998039215686276 L 134.99803921568628,53.0 L 134.0,53.998039215686276 L 133.0,53.998039215686276 L 132.99803921568628,54.0 L 132.0,54.998039215686276 L 131.99803921568628,55.0 L 131.0,55.998039215686276 L 130.99803921568628,56.0 L 130.0,56.998039215686276 L 129.99803921568628,57.0 L 129.0,57.998039215686276 L 128.99803921568628,58.0 L 128.0,58.998039215686276 L 127.99803921568628,59.0 L 127.0,59.998039215686276 L 126.99803921568628,60.0 L 126.0,60.998039215686276 L 125.99803921568628,61.0 L 125.0,61.998039215686276 L 124.99803921568628,62.0 L 124.0,62.998039215686276 L 123.99803921568628,63.0 L 123.0,63.998039215686276 L 122.99803921568628,64.0 L 122.0,64.99803921568628 L 121.99803921568628,65.0 L 121.0,65.99803921568628 L 120.99803921568628,66.0 L 120.0,66.99803921568628 L 119.99803921568628,67.0 L 119.0,67.99803921568628 L 118.99803921568628,68.0 L 118.0,68.99803921568628 L 117.99803921568628,69.0 L 117.99803921568628,70.0 L 117.0,70.99803921568628 L 116.99803921568628,71.0 L 116.0,71.99803921568628 L 115.99803921568628,72.0 L 115.0,72.99803921568628 L 114.0,72.99803921568628 L 113.99803921568628,73.0 L 113.0,73.99803921568628" fill="none" stroke="black" stroke-width="1" /><path d="M 74.0,62.998039215686276 L 73.00196078431372,62.0 L 73.0,61.998039215686276 L 72.00196078431372,61.0 L 72.0,60.998039215686276 L 71.00196078431372,60.0 L 71.0,59.998039215686276 L 70.00196078431372,59.0 L 70.0,58.998039215686276 L 69.00196078431372,58.0 L 69.0,57.998039215686276 L 68.00196078431372,57.0 L 68.0,56.998039215686276 L 67.00196078431372,56.0 L 67.0,55.998039215686276 L 66.00196078431372,55.0 L 66.0,54.998039215686276 L 65.0,54.998039215686276 L 64.00196078431372,54.0 L 64.0,53.998039215686276 L 63.001960784313724,53.0 L 63.0,52.998039215686276 L 62.001960784313724,52.0 L 62.0,51.998039215686276 L 61.001960784313724,51.0 L 61.0,50.998039215686276 L 60.0,50.998039215686276 L 59.001960784313724,50.0 L 59.0,49.998039215686276 L 58.001960784313724,49.0 L 58.0,48.998039215686276 L 57.001960784313724,48.0 L 57.0,47.998039215686276 L 56.0,47.998039215686276 L 55.001960784313724,47.0 L 55.0,46.998039215686276 L 54.001960784313724,46.0 L 54.0,45.998039215686276 L 53.001960784313724,45.0 L 53.0,44.998039215686276 L 52.0,44.998039215686276 L 51.001960784313724,44.0 L 51.0,43.998039215686276 L 50.0,43.998039215686276 L 49.001960784313724,43.0 L 49.0,42.998039215686276 L 48.001960784313724,42.0 L 48.0,41.998039215686276 L 47.0,41.998039215686276 L 46.001960784313724,41.0 L 46.0,40.998039215686276 L 45.0,40.998039215686276 L 44.001960784313724,40.0 L 44.0,39.998039215686276 L 43.0,39.998039215686276 L 42.001960784313724,39.0 L 42.0,38.998039215686276 L 41.001960784313724,38.0 L 42.0,37.001960784313724 L 43.0,37.001960784313724 L 43.998039215686276,38.0 L 44.0,38.001960784313724 L 45.0,38.001960784313724 L 45.998039215686276,39.0 L 46.0,39.001960784313724 L 47.0,39.001960784313724 L 47.998039215686276,40.0 L 48.0,40.001960784313724 L 49.0,40.001960784313724 L 49.998039215686276,41.0 L 50.0,41.001960784313724 L 50.998039215686276,42.0 L 51.0,42.001960784313724 L 52.0,42.001960784313724 L 52.998039215686276,43.0 L 53.0,43.001960784313724 L 54.0,43.001960784313724 L 54.998039215686276,44.0 L 55.0,44.001960784313724 L 55.998039215686276,45.0 L 56.0,45.001960784313724 L 56.998039215686276,46.0 L 57.0,46.001960784313724 L 58.0,46.001960784313724 L 58.998039215686276,47.0 L 59.0,47.001960784313724 L 59.998039215686276,48.0 L 60.0,48.001960784313724 L 60.998039215686276,49.0 L 61.0,49.001960784313724 L 62.0,49.001960784313724 L 62.998039215686276,50.0 L 63.0,50.001960784313724 L 63.998039215686276,51.0 L 64.0,51.001960784313724 L 64.99803921568628,52.0 L 65.0,52.001960784313724 L 65.99803921568628,53.0 L 66.0,53.001960784313724 L 67.0,53.001960784313724 L 67.99803921568628,54.0 L 68.0,54.001960784313724 L 68.99803921568628,55.0 L 69.0,55.001960784313724 L 69.99803921568628,56.0 L 70.0,56.001960784313724 L 70.99803921568628,57.0 L 71.0,57.001960784313724 L 71.99803921568628,58.0 L 72.0,58.001960784313724 L 72.99803921568628,59.0 L 73.0,59.001960784313724 L 73.99803921568628,60.0 L 74.0,60.001960784313724 L 74.99803921568628,61.0 L 74.99803921568628,62.0 L 74.0,62.998039215686276" fill="none" stroke="black" stroke-width="1" /><path d="M 178.0,42.998039215686276 L 177.00196078431372,42.0 L 177.00196078431372,41.0 L 177.00196078431372,40.0 L 178.0,39.001960784313724 L 178.99803921568628,40.0 L 178.99803921568628,41.0 L 178.99803921568628,42.0 L 178.0,42.998039215686276" fill="none" stroke="black" stroke-width="1" /><path d="M 15.0,58.998039215686276 L 14.001960784313725,58.0 L 14.0,57.998039215686276 L 13.001960784313725,57.0 L 13.0,56.998039215686276 L 12.001960784313725,56.0 L 12.0,55.998039215686276 L 11.001960784313725,55.0 L 11.0,54.998039215686276 L 10.001960784313725,54.0 L 10.001960784313725,53.0 L 10.0,52.998039215686276 L 9.001960784313725,52.0 L 9.0,51.998039215686276 L 8.001960784313725,51.0 L 8.001960784313725,50.0 L 8.0,49.998039215686276 L 7.0019607843137255,49.0 L 7.0019607843137255,48.0 L 7.0,47.998039215686276 L 6.0019607843137255,47.0 L 6.0019607843137255,46.0 L 6.0,45.998039215686276 L 5.0019607843137255,45.0 L 5.0019607843137255,44.0 L 5.0019607843137255,43.0 L 5.0019607843137255,42.0 L 6.0,41.001960784313724 L 6.9980392156862745,42.0 L 6.9980392156862745,43.0 L 6.9980392156862745,44.0 L 7.0,44.001960784313724 L 7.9980392156862745,45.0 L 7.9980392156862745,46.0 L 8.0,46.001960784313724 L 8.998039215686275,47.0 L 8.998039215686275,48.0 L 9.0,48.001960784313724 L 9.998039215686275,49.0 L 9.998039215686275,50.0 L 10.0,50.001960784313724 L 10.998039215686275,51.0 L 11.0,51.001960784313724 L 11.998039215686275,52.0 L 11.998039215686275,53.0 L 12.0,53.001960784313724 L 12.998039215686275,54.0 L 13.0,54.001960784313724 L 13.998039215686275,55.0 L 14.0,55.001960784313724 L 14.998039215686275,56.0 L 15.0,56.001960784313724 L 15.998039215686275,57.0 L 15.998039215686275,58.0 L 15.0,58.998039215686276" fill="none" stroke="black" stroke-width="1" /><path d="M 45.0,63.998039215686276 L 44.0,63.998039215686276 L 43.0,63.998039215686276 L 42.001960784313724,63.0 L 42.0,62.998039215686276 L 41.001960784313724,62.0 L 41.0,61.998039215686276 L 40.0,61.998039215686276 L 39.001960784313724,61.0 L 39.0,60.998039215686276 L 38.0,60.998039215686276 L 37.001960784313724,60.0 L 37.0,59.998039215686276 L 36.001960784313724,59.0 L 36.0,58.998039215686276 L 35.0,58.998039215686276 L 34.001960784313724,58.0 L 34.0,57.998039215686276 L 33.0,57.998039215686276 L 32.001960784313724,57.0 L 32.0,56.998039215686276 L 31.001960784313727,56.0 L 31.0,55.998039215686276 L 30.001960784313727,55.0 L 30.0,54.998039215686276 L 29.0,54.998039215686276 L 28.001960784313727,54.0 L 28.0,53.998039215686276 L 27.001960784313727,53.0 L 27.0,52.998039215686276 L 26.001960784313727,52.0 L 26.0,51.998039215686276 L 25.001960784313727,51.0 L 25.0,50.998039215686276 L 24.001960784313727,50.0 L 24.0,49.998039215686276 L 23.001960784313727,49.0 L 23.0,48.998039215686276 L 22.001960784313727,48.0 L 22.0,47.998039215686276 L 21.001960784313727,47.0 L 21.001960784313727,46.0 L 21.0,45.998039215686276 L 20.001960784313727,45.0 L 20.0,44.998039215686276 L 19.001960784313727,44.0 L 19.001960784313727,43.0 L 19.001960784313727,42.0 L 20.0,41.001960784313724 L 20.998039215686276,42.0 L 20.998039215686276,43.0 L 21.0,43.001960784313724 L 21.998039215686276,44.0 L 22.0,44.001960784313724 L 22.998039215686276,45.0 L 22.998039215686276,46.0 L 23.0,46.001960784313724 L 23.998039215686276,47.0 L 24.0,47.001960784313724 L 24.998039215686276,48.0 L 25.0,48.001960784313724 L 25.998039215686276,49.0 L 26.0,49.001960784313724 L 26.998039215686276,50.0 L 27.0,50.001960784313724 L 27.998039215686276,51.0 L 28.0,51.001960784313724 L 28.998039215686276,52.0 L 29.0,52.001960784313724 L 29.998039215686276,53.0 L 30.0,53.001960784313724 L 31.0,53.001960784313724 L 31.998039215686276,54.0 L 32.0,54.001960784313724 L 32.998039215686276,55.0 L 33.0,55.001960784313724 L 33.998039215686276,56.0 L 34.0,56.001960784313724 L 35.0,56.001960784313724 L 35.998039215686276,57.0 L 36.0,57.001960784313724 L 37.0,57.001960784313724 L 37.998039215686276,58.0 L 38.0,58.001960784313724 L 38.998039215686276,59.0 L 39.0,59.001960784313724 L 40.0,59.001960784313724 L 40.998039215686276,60.0 L 41.0,60.001960784313724 L 42.0,60.001960784313724 L 42.998039215686276,61.0 L 43.0,61.001960784313724 L 43.998039215686276,62.0 L 44.0,62.001960784313724 L 45.0,62.001960784313724 L 45.998039215686276,63.0 L 45.0,63.998039215686276" fill="none" stroke="black" stroke-width="1" /><path d="M 150.0,65.99803921568628 L 149.0,65.99803921568628 L 148.0,65.99803921568628 L 147.00196078431372,65.0 L 148.0,64.00196078431372 L 149.0,64.00196078431372 L 149.00196078431372,64.0 L 150.0,63.001960784313724 L 151.0,63.001960784313724 L 151.00196078431372,63.0 L 152.0,62.001960784313724 L 153.0,62.001960784313724 L 153.00196078431372,62.0 L 154.0,61.001960784313724 L 155.0,61.001960784313724 L 155.00196078431372,61.0 L 156.0,60.001960784313724 L 157.0,60.001960784313724 L 157.00196078431372,60.0 L 158.0,59.001960784313724 L 158.00196078431372,59.0 L 159.0,58.001960784313724 L 160.0,58.001960784313724 L 160.00196078431372,58.0 L 161.0,57.001960784313724 L 162.0,57.001960784313724 L 162.00196078431372,57.0 L 163.0,56.001960784313724 L 163.00196078431372,56.0 L 164.0,55.001960784313724 L 165.0,55.001960784313724 L 165.00196078431372,55.0 L 166.0,54.001960784313724 L 166.00196078431372,54.0 L 167.0,53.001960784313724 L 167.00196078431372,53.0 L 168.0,52.001960784313724 L 168.00196078431372,52.0 L 169.0,51.001960784313724 L 170.0,51.001960784313724 L 170.00196078431372,51.0 L 171.0,50.001960784313724 L 171.00196078431372,50.0 L 172.0,49.001960784313724 L 172.00196078431372,49.0 L 172.00196078431372,48.0 L 173.0,47.001960784313724 L 173.00196078431372,47.0 L 174.0,46.001960784313724 L 174.00196078431372,46.0 L 175.0,45.001960784313724 L 175.00196078431372,45.0 L 175.00196078431372,44.0 L 176.0,43.001960784313724 L 176.00196078431372,43.0 L 177.0,42.001960784313724 L 177.99803921568628,43.0 L 177.99803921568628,44.0 L 177.0,44.998039215686276 L 176.99803921568628,45.0 L 176.99803921568628,46.0 L 176.0,46.998039215686276 L 175.99803921568628,47.0 L 175.0,47.998039215686276 L 174.99803921568628,48.0 L 174.0,48.998039215686276 L 173.99803921568628,49.0 L 173.99803921568628,50.0 L 173.0,50.998039215686276 L 172.99803921568628,51.0 L 172.0,51.998039215686276 L 171.99803921568628,52.0 L 171.0,52.998039215686276 L 170.0,52.998039215686276 L 169.99803921568628,53.0 L 169.0,53.998039215686276 L 168.99803921568628,54.0 L 168.0,54.998039215686276 L 167.99803921568628,55.0 L 167.0,55.998039215686276 L 166.99803921568628,56.0 L 166.0,56.998039215686276 L 165.0,56.998039215686276 L 164.99803921568628,57.0 L 164.0,57.998039215686276 L 163.99803921568628,58.0 L 163.0,58.998039215686276 L 162.0,58.998039215686276 L 161.99803921568628,59.0 L 161.0,59.998039215686276 L 160.0,59.998039215686276 L 159.99803921568628,60.0 L 159.0,60.998039215686276 L 158.99803921568628,61.0 L 158.0,61.998039215686276 L 157.0,61.998039215686276 L 156.99803921568628,62.0 L 156.0,62.998039215686276 L 155.0,62.998039215686276 L 154.99803921568628,63.0 L 154.0,63.998039215686276 L 153.0,63.998039215686276 L 152.99803921568628,64.0 L 152.0,64.99803921568628 L 151.0,64.99803921568628 L 150.99803921568628,65.0 L 150.0,65.99803921568628" fill="none" stroke="black" stroke-width="1" /><path d="M 163.0,72.99803921568628 L 162.0,72.99803921568628 L 161.00196078431372,72.0 L 162.0,71.00196078431372 L 162.00196078431372,71.0 L 163.0,70.00196078431372 L 164.0,70.00196078431372 L 164.00196078431372,70.0 L 165.0,69.00196078431372 L 166.0,69.00196078431372 L 166.00196078431372,69.0 L 167.0,68.00196078431372 L 167.00196078431372,68.0 L 168.0,67.00196078431372 L 169.0,67.00196078431372 L 169.00196078431372,67.0 L 170.0,66.00196078431372 L 170.00196078431372,66.0 L 171.0,65.00196078431372 L 172.0,65.00196078431372 L 172.00196078431372,65.0 L 173.0,64.00196078431372 L 173.00196078431372,64.0 L 174.0,63.001960784313724 L 175.0,63.001960784313724 L 175.00196078431372,63.0 L 176.0,62.001960784313724 L 176.00196078431372,62.0 L 177.0,61.001960784313724 L 177.00196078431372,61.0 L 178.0,60.001960784313724 L 178.00196078431372,60.0 L 179.0,59.001960784313724 L 180.0,59.001960784313724 L 180.00196078431372,59.0 L 181.0,58.001960784313724 L 181.00196078431372,58.0 L 182.0,57.001960784313724 L 182.00196078431372,57.0 L 183.0,56.001960784313724 L 183.00196078431372,56.0 L 184.0,55.001960784313724 L 184.00196078431372,55.0 L 184.00196078431372,54.0 L 185.0,53.001960784313724 L 185.00196078431372,53.0 L 186.0,52.001960784313724 L 186.00196078431372,52.0 L 187.0,51.001960784313724 L 187.00196078431372,51.0 L 187.00196078431372,50.0 L 188.0,49.001960784313724 L 188.00196078431372,49.0 L 188.00196078431372,48.0 L 189.0,47.001960784313724 L 189.00196078431372,47.0 L 189.00196078431372,46.0 L 190.0,45.001960784313724 L 190.00196078431372,45.0 L 190.00196078431372,44.0 L 191.0,43.001960784313724 L 191.99803921568628,44.0 L 191.99803921568628,45.0 L 191.99803921568628,46.0 L 191.0,46.998039215686276 L 190.99803921568628,47.0 L 190.99803921568628,48.0 L 190.0,48.998039215686276 L 189.99803921568628,49.0 L 189.99803921568628,50.0 L 189.0,50.998039215686276 L 188.99803921568628,51.0 L 188.99803921568628,52.0 L 188.0,52.998039215686276 L 187.99803921568628,53.0 L 187.0,53.998039215686276 L 186.99803921568628,54.0 L 186.0,54.998039215686276 L 185.99803921568628,55.0 L 185.99803921568628,56.0 L 185.0,56.998039215686276 L 184.99803921568628,57.0 L 184.0,57.998039215686276 L 183.99803921568628,58.0 L 183.0,58.998039215686276 L 182.99803921568628,59.0 L 182.0,59.998039215686276 L 181.99803921568628,60.0 L 181.0,60.998039215686276 L 180.0,60.998039215686276 L 179.99803921568628,61.0 L 179.0,61.998039215686276 L 178.99803921568628,62.0 L 178.0,62.998039215686276 L 177.99803921568628,63.0 L 177.0,63.998039215686276 L 176.99803921568628,64.0 L 176.0,64.99803921568628 L 175.0,64.99803921568628 L 174.99803921568628,65.0 L 174.0,65.99803921568628 L 173.99803921568628,66.0 L 173.0,66.99803921568628 L 172.0,66.99803921568628 L 171.99803921568628,67.0 L 171.0,67.99803921568628 L 170.99803921568628,68.0 L 170.0,68.99803921568628 L 169.0,68.99803921568628 L 168.99803921568628,69.0 L 168.0,69.99803921568628 L 167.99803921568628,70.0 L 167.0,70.99803921568628 L 166.0,70.99803921568628 L 165.99803921568628,71.0 L 165.0,71.99803921568628 L 164.0,71.99803921568628 L 163.99803921568628,72.0 L 163.0,72.99803921568628" fill="none" stroke="black" stroke-width="1" /><path d="M 16.0,50.998039215686276 L 15.001960784313725,50.0 L 15.001960784313725,49.0 L 15.001960784313725,48.0 L 15.001960784313725,47.0 L 16.0,46.001960784313724 L 16.998039215686276,47.0 L 16.998039215686276,48.0 L 16.998039215686276,49.0 L 16.998039215686276,50.0 L 16.0,50.998039215686276" fill="none" stroke="black" stroke-width="1" /><path d="M 84.0,54.998039215686276 L 83.00196078431372,54.0 L 83.0,53.998039215686276 L 82.00196078431372,53.0 L 82.0,52.998039215686276 L 81.00196078431372,52.0 L 81.0,51.998039215686276 L 80.00196078431372,51.0 L 80.0,50.998039215686276 L 79.00196078431372,50.0 L 79.0,49.998039215686276 L 78.00196078431372,49.0 L 78.0,48.998039215686276 L 77.00196078431372,48.0 L 78.0,47.001960784313724 L 79.0,47.001960784313724 L 79.99803921568628,48.0 L 80.0,48.001960784313724 L 80.99803921568628,49.0 L 81.0,49.001960784313724 L 81.99803921568628,50.0 L 82.0,50.001960784313724 L 82.99803921568628,51.0 L 83.0,51.001960784313724 L 83.99803921568628,52.0 L 84.0,52.001960784313724 L 84.99803921568628,53.0 L 84.99803921568628,54.0 L 84.0,54.998039215686276" fill="none" stroke="black" stroke-width="1" /><path d="M 17.0,53.998039215686276 L 16.001960784313727,53.0 L 16.001960784313727,52.0 L 16.001960784313727,51.0 L 17.0,50.001960784313724 L 17.998039215686276,51.0 L 17.998039215686276,52.0 L 17.998039215686276,53.0 L 17.0,53.998039215686276" fill="none" stroke="black" stroke-width="1" /><path d="M 47.0,77.99803921568628 L 46.0,77.99803921568628 L 45.0,77.99803921568628 L 44.001960784313724,77.0 L 44.0,76.99803921568628 L 43.0,76.99803921568628 L 42.001960784313724,76.0 L 42.0,75.99803921568628 L 41.0,75.99803921568628 L 40.001960784313724,75.0 L 40.0,74.99803921568628 L 39.0,74.99803921568628 L 38.001960784313724,74.0 L 38.0,73.99803921568628 L 37.0,73.99803921568628 L 36.001960784313724,73.0 L 36.0,72.99803921568628 L 35.0,72.99803921568628 L 34.001960784313724,72.0 L 34.0,71.99803921568628 L 33.0,71.99803921568628 L 32.001960784313724,71.0 L 32.0,70.99803921568628 L 31.0,70.99803921568628 L 30.001960784313727,70.0 L 30.0,69.99803921568628 L 29.001960784313727,69.0 L 29.0,68.99803921568628 L 28.0,68.99803921568628 L 27.001960784313727,68.0 L 27.0,67.99803921568628 L 26.001960784313727,67.0 L 26.0,66.99803921568628 L 25.0,66.99803921568628 L 24.001960784313727,66.0 L 24.0,65.99803921568628 L 23.001960784313727,65.0 L 23.0,64.99803921568628 L 22.001960784313727,64.0 L 22.0,63.998039215686276 L 21.001960784313727,63.0 L 21.001960784313727,62.0 L 21.0,61.998039215686276 L 20.001960784313727,61.0 L 20.0,60.998039215686276 L 19.001960784313727,60.0 L 19.001960784313727,59.0 L 19.0,58.998039215686276 L 18.001960784313727,58.0 L 18.001960784313727,57.0 L 18.0,56.998039215686276 L 17.001960784313727,56.0 L 17.001960784313727,55.0 L 17.001960784313727,54.0 L 18.0,53.001960784313724 L 18.998039215686276,54.0 L 18.998039215686276,55.0 L 19.0,55.001960784313724 L 19.998039215686276,56.0 L 19.998039215686276,57.0 L 20.0,57.001960784313724 L 20.998039215686276,58.0 L 20.998039215686276,59.0 L 21.0,59.001960784313724 L 21.998039215686276,60.0 L 22.0,60.001960784313724 L 22.998039215686276,61.0 L 22.998039215686276,62.0 L 23.0,62.001960784313724 L 23.998039215686276,63.0 L 24.0,63.001960784313724 L 24.998039215686276,64.0 L 25.0,64.00196078431372 L 25.998039215686276,65.0 L 26.0,65.00196078431372 L 27.0,65.00196078431372 L 27.998039215686276,66.0 L 28.0,66.00196078431372 L 28.998039215686276,67.0 L 29.0,67.00196078431372 L 30.0,67.00196078431372 L 30.998039215686276,68.0 L 31.0,68.00196078431372 L 31.998039215686276,69.0 L 32.0,69.00196078431372 L 33.0,69.00196078431372 L 33.998039215686276,70.0 L 34.0,70.00196078431372 L 35.0,70.00196078431372 L 35.998039215686276,71.0 L 36.0,71.00196078431372 L 37.0,71.00196078431372 L 37.998039215686276,72.0 L 38.0,72.00196078431372 L 39.0,72.00196078431372 L 39.998039215686276,73.0 L 40.0,73.00196078431372 L 41.0,73.00196078431372 L 41.998039215686276,74.0 L 42.0,74.00196078431372 L 43.0,74.00196078431372 L 43.998039215686276,75.0 L 44.0,75.00196078431372 L 45.0,75.00196078431372 L 45.998039215686276,76.0 L 46.0,76.00196078431372 L 47.0,76.00196078431372 L 47.998039215686276,77.0 L 47.0,77.99803921568628" fill="none" stroke="black" stroke-width="1" /><path d="M 97.0,70.99803921568628 L 96.00196078431372,70.0 L 96.0,69.99803921568628 L 95.00196078431372,69.0 L 95.0,68.99803921568628 L 94.00196078431372,68.0 L 94.00196078431372,67.0 L 94.0,66.99803921568628 L 93.00196078431372,66.0 L 93.0,65.99803921568628 L 92.00196078431372,65.0 L 92.0,64.99803921568628 L 91.00196078431372,64.0 L 91.00196078431372,63.0 L 91.0,62.998039215686276 L 90.00196078431372,62.0 L 90.0,61.998039215686276 L 89.00196078431372,61.0 L 89.0,60.998039215686276 L 88.00196078431372,60.0 L 88.0,59.998039215686276 L 87.00196078431372,59.0 L 87.0,58.998039215686276 L 86.00196078431372,58.0 L 86.0,57.998039215686276 L 85.00196078431372,57.0 L 85.0,56.998039215686276 L 84.00196078431372,56.0 L 84.00196078431372,55.0 L 85.0,54.001960784313724 L 85.99803921568628,55.0 L 86.0,55.001960784313724 L 86.99803921568628,56.0 L 87.0,56.001960784313724 L 87.99803921568628,57.0 L 88.0,57.001960784313724 L 88.99803921568628,58.0 L 89.0,58.001960784313724 L 89.99803921568628,59.0 L 90.0,59.001960784313724 L 90.99803921568628,60.0 L 91.0,60.001960784313724 L 91.99803921568628,61.0 L 92.0,61.001960784313724 L 92.99803921568628,62.0 L 92.99803921568628,63.0 L 93.0,63.001960784313724 L 93.99803921568628,64.0 L 94.0,64.00196078431372 L 94.99803921568628,65.0 L 95.0,65.00196078431372 L 95.99803921568628,66.0 L 95.99803921568628,67.0 L 96.0,67.00196078431372 L 96.99803921568628,68.0 L 97.0,68.00196078431372 L 97.99803921568628,69.0 L 97.99803921568628,70.0 L 97.0,70.99803921568628" fill="none" stroke="black" stroke-width="1" /><path d="M 76.0,64.99803921568628 L 75.00196078431372,64.0 L 75.0,63.998039215686276 L 74.00196078431372,63.0 L 75.0,62.001960784313724 L 76.0,62.001960784313724 L 76.99803921568628,63.0 L 76.99803921568628,64.0 L 76.0,64.99803921568628" fill="none" stroke="black" stroke-width="1" /><path d="M 49.0,65.99803921568628 L 48.0,65.99803921568628 L 47.001960784313724,65.0 L 47.0,64.99803921568628 L 46.0,64.99803921568628 L 45.001960784313724,64.0 L 46.0,63.001960784313724 L 47.0,63.001960784313724 L 48.0,63.001960784313724 L 48.998039215686276,64.0 L 49.0,64.00196078431372 L 49.998039215686276,65.0 L 49.0,65.99803921568628" fill="none" stroke="black" stroke-width="1" /><path d="M 83.0,71.99803921568628 L 82.0,71.99803921568628 L 81.00196078431372,71.0 L 81.0,70.99803921568628 L 80.00196078431372,70.0 L 80.0,69.99803921568628 L 79.00196078431372,69.0 L 79.0,68.99803921568628 L 78.00196078431372,68.0 L 78.0,67.99803921568628 L 77.00196078431372,67.0 L 77.0,66.99803921568628 L 76.00196078431372,66.0 L 76.00196078431372,65.0 L 77.0,64.00196078431372 L 77.99803921568628,65.0 L 78.0,65.00196078431372 L 78.99803921568628,66.0 L 79.0,66.00196078431372 L 79.99803921568628,67.0 L 80.0,67.00196078431372 L 80.99803921568628,68.0 L 81.0,68.00196078431372 L 81.99803921568628,69.0 L 82.0,69.00196078431372 L 82.99803921568628,70.0 L 83.0,70.00196078431372 L 83.99803921568628,71.0 L 83.0,71.99803921568628" fill="none" stroke="black" stroke-width="1" /><path d="M 54.0,67.99803921568628 L 53.0,67.99803921568628 L 52.0,67.99803921568628 L 51.001960784313724,67.0 L 51.0,66.99803921568628 L 50.0,66.99803921568628 L 49.001960784313724,66.0 L 50.0,65.00196078431372 L 51.0,65.00196078431372 L 52.0,65.00196078431372 L 52.998039215686276,66.0 L 53.0,66.00196078431372 L 54.0,66.00196078431372 L 54.998039215686276,67.0 L 54.0,67.99803921568628" fill="none" stroke="black" stroke-width="1" /><path d="M 145.0,67.99803921568628 L 144.0,67.99803921568628 L 143.0,67.99803921568628 L 142.00196078431372,67.0 L 143.0,66.00196078431372 L 144.0,66.00196078431372 L 144.00196078431372,66.0 L 145.0,65.00196078431372 L 146.0,65.00196078431372 L 147.0,65.00196078431372 L 147.99803921568628,66.0 L 147.0,66.99803921568628 L 146.0,66.99803921568628 L 145.99803921568628,67.0 L 145.0,67.99803921568628" fill="none" stroke="black" stroke-width="1" /><path d="M 57.0,68.99803921568628 L 56.0,68.99803921568628 L 55.0,68.99803921568628 L 54.001960784313724,68.0 L 55.0,67.00196078431372 L 56.0,67.00196078431372 L 57.0,67.00196078431372 L 57.998039215686276,68.0 L 57.0,68.99803921568628" fill="none" stroke="black" stroke-width="1" /><path d="M 142.0,68.99803921568628 L 141.0,68.99803921568628 L 140.0,68.99803921568628 L 139.00196078431372,68.0 L 140.0,67.00196078431372 L 141.0,67.00196078431372 L 142.0,67.00196078431372 L 142.99803921568628,68.0 L 142.0,68.99803921568628" fill="none" stroke="black" stroke-width="1" /><path d="M 60.0,69.99803921568628 L 59.0,69.99803921568628 L 58.0,69.99803921568628 L 57.001960784313724,69.0 L 58.0,68.00196078431372 L 59.0,68.00196078431372 L 60.0,68.00196078431372 L 60.998039215686276,69.0 L 60.0,69.99803921568628" fill="none" stroke="black" stroke-width="1" /><path d="M 139.0,69.99803921568628 L 138.0,69.99803921568628 L 137.0,69.99803921568628 L 136.00196078431372,69.0 L 137.0,68.00196078431372 L 138.0,68.00196078431372 L 139.0,68.00196078431372 L 139.99803921568628,69.0 L 139.0,69.99803921568628" fill="none" stroke="black" stroke-width="1" /><path d="M 63.0,70.99803921568628 L 62.0,70.99803921568628 L 61.0,70.99803921568628 L 60.001960784313724,70.0 L 61.0,69.00196078431372 L 62.0,69.00196078431372 L 63.0,69.00196078431372 L 63.998039215686276,70.0 L 63.0,70.99803921568628" fill="none" stroke="black" stroke-width="1" /><path d="M 136.0,70.99803921568628 L 135.0,70.99803921568628 L 134.0,70.99803921568628 L 133.00196078431372,70.0 L 134.0,69.00196078431372 L 135.0,69.00196078431372 L 136.0,69.00196078431372 L 136.99803921568628,70.0 L 136.0,70.99803921568628" fill="none" stroke="black" stroke-width="1" /><path d="M 67.0,71.99803921568628 L 66.0,71.99803921568628 L 65.0,71.99803921568628 L 64.0,71.99803921568628 L 63.001960784313724,71.0 L 64.0,70.00196078431372 L 65.0,70.00196078431372 L 66.0,70.00196078431372 L 67.0,70.00196078431372 L 67.99803921568628,71.0 L 67.0,71.99803921568628" fill="none" stroke="black" stroke-width="1" /><path d="M 133.0,71.99803921568628 L 132.0,71.99803921568628 L 131.0,71.99803921568628 L 130.00196078431372,71.0 L 131.0,70.00196078431372 L 132.0,70.00196078431372 L 133.0,70.00196078431372 L 133.99803921568628,71.0 L 133.0,71.99803921568628" fill="none" stroke="black" stroke-width="1" /><path d="M 70.0,72.99803921568628 L 69.0,72.99803921568628 L 68.0,72.99803921568628 L 67.00196078431372,72.0 L 68.0,71.00196078431372 L 69.0,71.00196078431372 L 70.0,71.00196078431372 L 70.99803921568628,72.0 L 70.0,72.99803921568628" fill="none" stroke="black" stroke-width="1" /><path d="M 130.0,72.99803921568628 L 129.0,72.99803921568628 L 128.0,72.99803921568628 L 127.00196078431372,72.0 L 128.0,71.00196078431372 L 129.0,71.00196078431372 L 130.0,71.00196078431372 L 130.99803921568628,72.0 L 130.0,72.99803921568628" fill="none" stroke="black" stroke-width="1" /><path d="M 75.0,73.99803921568628 L 74.0,73.99803921568628 L 73.0,73.99803921568628 L 72.0,73.99803921568628 L 71.0,73.99803921568628 L 70.00196078431372,73.0 L 71.0,72.00196078431372 L 72.0,72.00196078431372 L 73.0,72.00196078431372 L 74.0,72.00196078431372 L 75.0,72.00196078431372 L 75.99803921568628,73.0 L 75.0,73.99803921568628" fill="none" stroke="black" stroke-width="1" /><path d="M 127.0,73.99803921568628 L 126.0,73.99803921568628 L 125.0,73.99803921568628 L 124.0,73.99803921568628 L 123.00196078431372,73.0 L 124.0,72.00196078431372 L 125.0,72.00196078431372 L 126.0,72.00196078431372 L 127.0,72.00196078431372 L 127.99803921568628,73.0 L 127.0,73.99803921568628" fill="none" stroke="black" stroke-width="1" /><path d="M 154.0,77.99803921568628 L 153.0,77.99803921568628 L 152.0,77.99803921568628 L 151.00196078431372,77.0 L 152.0,76.00196078431372 L 153.0,76.00196078431372 L 153.00196078431372,76.0 L 154.0,75.00196078431372 L 155.0,75.00196078431372 L 155.00196078431372,75.0 L 156.0,74.00196078431372 L 157.0,74.00196078431372 L 157.00196078431372,74.0 L 158.0,73.00196078431372 L 159.0,73.00196078431372 L 159.00196078431372,73.0 L 160.0,72.00196078431372 L 161.0,72.00196078431372 L 161.99803921568628,73.0 L 161.0,73.99803921568628 L 160.99803921568628,74.0 L 160.0,74.99803921568628 L 159.0,74.99803921568628 L 158.99803921568628,75.0 L 158.0,75.99803921568628 L 157.0,75.99803921568628 L 156.99803921568628,76.0 L 156.0,76.99803921568628 L 155.0,76.99803921568628 L 154.99803921568628,77.0 L 154.0,77.99803921568628" fill="none" stroke="black" stroke-width="1" /><path d="M 80.0,74.99803921568628 L 79.0,74.99803921568628 L 78.0,74.99803921568628 L 77.0,74.99803921568628 L 76.0,74.99803921568628 L 75.00196078431372,74.0 L 76.0,73.00196078431372 L 77.0,73.00196078431372 L 78.0,73.00196078431372 L 79.0,73.00196078431372 L 80.0,73.00196078431372 L 80.99803921568628,74.0 L 80.0,74.99803921568628" fill="none" stroke="black" stroke-width="1" /><path d="M 108.0,87.99803921568628 L 107.0,87.99803921568628 L 106.00196078431372,87.0 L 106.0,86.99803921568628 L 105.00196078431372,86.0 L 105.0,85.99803921568628 L 104.00196078431372,85.0 L 104.00196078431372,84.0 L 104.0,83.99803921568628 L 103.00196078431372,83.0 L 103.00196078431372,82.0 L 103.0,81.99803921568628 L 102.00196078431372,81.0 L 102.00196078431372,80.0 L 102.0,79.99803921568628 L 101.00196078431372,79.0 L 101.0,78.99803921568628 L 100.00196078431372,78.0 L 100.00196078431372,77.0 L 100.0,76.99803921568628 L 99.00196078431372,76.0 L 99.00196078431372,75.0 L 99.00196078431372,74.0 L 100.0,73.00196078431372 L 100.99803921568628,74.0 L 100.99803921568628,75.0 L 101.0,75.00196078431372 L 101.99803921568628,76.0 L 101.99803921568628,77.0 L 102.0,77.00196078431372 L 102.99803921568628,78.0 L 103.0,78.00196078431372 L 103.99803921568628,79.0 L 103.99803921568628,80.0 L 104.0,80.00196078431372 L 104.99803921568628,81.0 L 104.99803921568628,82.0 L 105.0,82.00196078431372 L 105.99803921568628,83.0 L 105.99803921568628,84.0 L 106.0,84.00196078431372 L 106.99803921568628,85.0 L 107.0,85.00196078431372 L 107.99803921568628,86.0 L 108.0,86.00196078431372 L 108.99803921568628,87.0 L 108.0,87.99803921568628" fill="none" stroke="black" stroke-width="1" /><path d="M 123.0,74.99803921568628 L 122.0,74.99803921568628 L 121.0,74.99803921568628 L 120.0,74.99803921568628 L 119.0,74.99803921568628 L 118.00196078431372,74.0 L 119.0,73.00196078431372 L 120.0,73.00196078431372 L 121.0,73.00196078431372 L 122.0,73.00196078431372 L 123.0,73.00196078431372 L 123.99803921568628,74.0 L 123.0,74.99803921568628" fill="none" stroke="black" stroke-width="1" /><path d="M 83.0,75.99803921568628 L 82.0,75.99803921568628 L 81.0,75.99803921568628 L 80.00196078431372,75.0 L 81.0,74.00196078431372 L 82.0,74.00196078431372 L 83.0,74.00196078431372 L 83.99803921568628,75.0 L 83.0,75.99803921568628" fill="none" stroke="black" stroke-width="1" /><path d="M 118.0,75.99803921568628 L 117.0,75.99803921568628 L 116.0,75.99803921568628 L 115.0,75.99803921568628 L 114.0,75.99803921568628 L 113.0,75.99803921568628 L 112.0,75.99803921568628 L 111.00196078431372,75.0 L 112.0,74.00196078431372 L 113.0,74.00196078431372 L 114.0,74.00196078431372 L 115.0,74.00196078431372 L 116.0,74.00196078431372 L 117.0,74.00196078431372 L 118.0,74.00196078431372 L 118.99803921568628,75.0 L 118.0,75.99803921568628" fill="none" stroke="black" stroke-width="1" /><path d="M 94.0,89.99803921568628 L 93.00196078431372,89.0 L 93.00196078431372,88.0 L 93.0,87.99803921568628 L 92.00196078431372,87.0 L 92.00196078431372,86.0 L 92.0,85.99803921568628 L 91.00196078431372,85.0 L 91.0,84.99803921568628 L 90.00196078431372,84.0 L 90.00196078431372,83.0 L 90.0,82.99803921568628 L 89.00196078431372,82.0 L 89.0,81.99803921568628 L 88.00196078431372,81.0 L 88.00196078431372,80.0 L 88.0,79.99803921568628 L 87.00196078431372,79.0 L 87.0,78.99803921568628 L 86.00196078431372,78.0 L 86.0,77.99803921568628 L 85.00196078431372,77.0 L 85.0,76.99803921568628 L 84.0,76.99803921568628 L 83.00196078431372,76.0 L 84.0,75.00196078431372 L 85.0,75.00196078431372 L 86.0,75.00196078431372 L 86.99803921568628,76.0 L 87.0,76.00196078431372 L 87.99803921568628,77.0 L 88.0,77.00196078431372 L 88.99803921568628,78.0 L 89.0,78.00196078431372 L 89.99803921568628,79.0 L 89.99803921568628,80.0 L 90.0,80.00196078431372 L 90.99803921568628,81.0 L 91.0,81.00196078431372 L 91.99803921568628,82.0 L 91.99803921568628,83.0 L 92.0,83.00196078431372 L 92.99803921568628,84.0 L 93.0,84.00196078431372 L 93.99803921568628,85.0 L 93.99803921568628,86.0 L 94.0,86.00196078431372 L 94.99803921568628,87.0 L 94.99803921568628,88.0 L 94.99803921568628,89.0 L 94.0,89.99803921568628" fill="none" stroke="black" stroke-width="1" /><path d="M 52.0,79.99803921568628 L 51.0,79.99803921568628 L 50.0,79.99803921568628 L 49.001960784313724,79.0 L 49.0,78.99803921568628 L 48.0,78.99803921568628 L 47.001960784313724,78.0 L 48.0,77.00196078431372 L 49.0,77.00196078431372 L 50.0,77.00196078431372 L 50.998039215686276,78.0 L 51.0,78.00196078431372 L 52.0,78.00196078431372 L 52.998039215686276,79.0 L 52.0,79.99803921568628" fill="none" stroke="black" stroke-width="1" /><path d="M 149.0,79.99803921568628 L 148.0,79.99803921568628 L 147.0,79.99803921568628 L 146.00196078431372,79.0 L 147.0,78.00196078431372 L 148.0,78.00196078431372 L 148.00196078431372,78.0 L 149.0,77.00196078431372 L 150.0,77.00196078431372 L 151.0,77.00196078431372 L 151.99803921568628,78.0 L 151.0,78.99803921568628 L 150.0,78.99803921568628 L 149.99803921568628,79.0 L 149.0,79.99803921568628" fill="none" stroke="black" stroke-width="1" /><path d="M 55.0,80.99803921568628 L 54.0,80.99803921568628 L 53.0,80.99803921568628 L 52.001960784313724,80.0 L 53.0,79.00196078431372 L 54.0,79.00196078431372 L 55.0,79.00196078431372 L 55.998039215686276,80.0 L 55.0,80.99803921568628" fill="none" stroke="black" stroke-width="1" /><path d="M 144.0,81.99803921568628 L 143.0,81.99803921568628 L 142.0,81.99803921568628 L 141.0,81.99803921568628 L 140.00196078431372,81.0 L 141.0,80.00196078431372 L 142.0,80.00196078431372 L 143.0,80.00196078431372 L 143.00196078431372,80.0 L 144.0,79.00196078431372 L 145.0,79.00196078431372 L 146.0,79.00196078431372 L 146.99803921568628,80.0 L 146.0,80.99803921568628 L 145.0,80.99803921568628 L 144.99803921568628,81.0 L 144.0,81.99803921568628" fill="none" stroke="black" stroke-width="1" /><path d="M 58.0,81.99803921568628 L 57.0,81.99803921568628 L 56.0,81.99803921568628 L 55.001960784313724,81.0 L 56.0,80.00196078431372 L 57.0,80.00196078431372 L 58.0,80.00196078431372 L 58.998039215686276,81.0 L 58.0,81.99803921568628" fill="none" stroke="black" stroke-width="1" /><path d="M 61.0,82.99803921568628 L 60.0,82.99803921568628 L 59.0,82.99803921568628 L 58.001960784313724,82.0 L 59.0,81.00196078431372 L 60.0,81.00196078431372 L 61.0,81.00196078431372 L 61.998039215686276,82.0 L 61.0,82.99803921568628" fill="none" stroke="black" stroke-width="1" /><path d="M 140.0,82.99803921568628 L 139.0,82.99803921568628 L 138.0,82.99803921568628 L 137.00196078431372,82.0 L 138.0,81.00196078431372 L 139.0,81.00196078431372 L 140.0,81.00196078431372 L 140.99803921568628,82.0 L 140.0,82.99803921568628" fill="none" stroke="black" stroke-width="1" /><path d="M 65.0,83.99803921568628 L 64.0,83.99803921568628 L 63.0,83.99803921568628 L 62.0,83.99803921568628 L 61.001960784313724,83.0 L 62.0,82.00196078431372 L 63.0,82.00196078431372 L 64.0,82.00196078431372 L 65.0,82.00196078431372 L 65.99803921568628,83.0 L 65.0,83.99803921568628" fill="none" stroke="black" stroke-width="1" /><path d="M 137.0,83.99803921568628 L 136.0,83.99803921568628 L 135.0,83.99803921568628 L 134.0,83.99803921568628 L 133.00196078431372,83.0 L 134.0,82.00196078431372 L 135.0,82.00196078431372 L 136.0,82.00196078431372 L 137.0,82.00196078431372 L 137.99803921568628,83.0 L 137.0,83.99803921568628" fill="none" stroke="black" stroke-width="1" /><path d="M 69.0,84.99803921568628 L 68.0,84.99803921568628 L 67.0,84.99803921568628 L 66.0,84.99803921568628 L 65.00196078431372,84.0 L 66.0,83.00196078431372 L 67.0,83.00196078431372 L 68.0,83.00196078431372 L 69.0,83.00196078431372 L 69.99803921568628,84.0 L 69.0,84.99803921568628" fill="none" stroke="black" stroke-width="1" /><path d="M 133.0,84.99803921568628 L 132.0,84.99803921568628 L 131.0,84.99803921568628 L 130.0,84.99803921568628 L 129.00196078431372,84.0 L 130.0,83.00196078431372 L 131.0,83.00196078431372 L 132.0,83.00196078431372 L 133.0,83.00196078431372 L 133.99803921568628,84.0 L 133.0,84.99803921568628" fill="none" stroke="black" stroke-width="1" /><path d="M 74.0,85.99803921568628 L 73.0,85.99803921568628 L 72.0,85.99803921568628 L 71.0,85.99803921568628 L 70.0,85.99803921568628 L 69.00196078431372,85.0 L 70.0,84.00196078431372 L 71.0,84.00196078431372 L 72.0,84.00196078431372 L 73.0,84.00196078431372 L 74.0,84.00196078431372 L 74.99803921568628,85.0 L 74.0,85.99803921568628" fill="none" stroke="black" stroke-width="1" /><path d="M 129.0,85.99803921568628 L 128.0,85.99803921568628 L 127.0,85.99803921568628 L 126.0,85.99803921568628 L 125.00196078431372,85.0 L 126.0,84.00196078431372 L 127.0,84.00196078431372 L 128.0,84.00196078431372 L 129.0,84.00196078431372 L 129.99803921568628,85.0 L 129.0,85.99803921568628" fill="none" stroke="black" stroke-width="1" /><path d="M 80.0,86.99803921568628 L 79.0,86.99803921568628 L 78.0,86.99803921568628 L 77.0,86.99803921568628 L 76.0,86.99803921568628 L 75.0,86.99803921568628 L 74.00196078431372,86.0 L 75.0,85.00196078431372 L 76.0,85.00196078431372 L 77.0,85.00196078431372 L 78.0,85.00196078431372 L 79.0,85.00196078431372 L 80.0,85.00196078431372 L 80.99803921568628,86.0 L 80.0,86.99803921568628" fill="none" stroke="black" stroke-width="1" /><path d="M 125.0,86.99803921568628 L 124.0,86.99803921568628 L 123.0,86.99803921568628 L 122.0,86.99803921568628 L 121.0,86.99803921568628 L 120.0,86.99803921568628 L 119.00196078431372,86.0 L 120.0,85.00196078431372 L 121.0,85.00196078431372 L 122.0,85.00196078431372 L 123.0,85.00196078431372 L 124.0,85.00196078431372 L 125.0,85.00196078431372 L 125.99803921568628,86.0 L 125.0,86.99803921568628" fill="none" stroke="black" stroke-width="1" /><path d="M 87.0,87.99803921568628 L 86.0,87.99803921568628 L 85.0,87.99803921568628 L 84.0,87.99803921568628 L 83.0,87.99803921568628 L 82.0,87.99803921568628 L 81.0,87.99803921568628 L 80.00196078431372,87.0 L 81.0,86.00196078431372 L 82.0,86.00196078431372 L 83.0,86.00196078431372 L 84.0,86.00196078431372 L 85.0,86.00196078431372 L 86.0,86.00196078431372 L 87.0,86.00196078431372 L 87.99803921568628,87.0 L 87.0,87.99803921568628" fill="none" stroke="black" stroke-width="1" /><path d="M 119.0,87.99803921568628 L 118.0,87.99803921568628 L 117.0,87.99803921568628 L 116.0,87.99803921568628 L 115.0,87.99803921568628 L 114.0,87.99803921568628 L 113.0,87.99803921568628 L 112.0,87.99803921568628 L 111.00196078431372,87.0 L 112.0,86.00196078431372 L 113.0,86.00196078431372 L 114.0,86.00196078431372 L 115.0,86.00196078431372 L 116.0,86.00196078431372 L 117.0,86.00196078431372 L 118.0,86.00196078431372 L 119.0,86.00196078431372 L 119.99803921568628,87.0 L 119.0,87.99803921568628" fill="none" stroke="black" stroke-width="1" /><path d="M 88.0,93.99803921568628 L 87.00196078431372,93.0 L 87.00196078431372,92.0 L 88.0,91.00196078431372 L 88.00196078431372,91.0 L 88.00196078431372,90.0 L 88.00196078431372,89.0 L 88.0,88.99803921568628 L 87.00196078431372,88.0 L 88.0,87.00196078431372 L 89.0,87.00196078431372 L 89.99803921568628,88.0 L 89.99803921568628,89.0 L 89.99803921568628,90.0 L 89.99803921568628,91.0 L 89.99803921568628,92.0 L 89.0,92.99803921568628 L 88.99803921568628,93.0 L 88.0,93.99803921568628" fill="none" stroke="black" stroke-width="1" /><path d="M 111.0,88.99803921568628 L 110.0,88.99803921568628 L 109.0,88.99803921568628 L 108.00196078431372,88.0 L 109.0,87.00196078431372 L 110.0,87.00196078431372 L 111.0,87.00196078431372 L 111.99803921568628,88.0 L 111.0,88.99803921568628" fill="none" stroke="black" stroke-width="1" /><path d="M 96.0,93.99803921568628 L 95.00196078431372,93.0 L 95.00196078431372,92.0 L 95.0,91.99803921568628 L 94.00196078431372,91.0 L 94.00196078431372,90.0 L 95.0,89.00196078431372 L 95.99803921568628,90.0 L 96.0,90.00196078431372 L 96.99803921568628,91.0 L 96.99803921568628,92.0 L 96.99803921568628,93.0 L 96.0,93.99803921568628" fill="none" stroke="black" stroke-width="1" /><path d="M 111.0,95.99803921568628 L 110.00196078431372,95.0 L 110.00196078431372,94.0 L 110.0,93.99803921568628 L 109.00196078431372,93.0 L 109.00196078431372,92.0 L 109.00196078431372,91.0 L 109.00196078431372,90.0 L 110.0,89.00196078431372 L 110.99803921568628,90.0 L 110.99803921568628,91.0 L 110.99803921568628,92.0 L 111.0,92.00196078431372 L 111.99803921568628,93.0 L 111.99803921568628,94.0 L 111.99803921568628,95.0 L 111.0,95.99803921568628" fill="none" stroke="black" stroke-width="1" /><path d="M 86.0,98.99803921568628 L 85.00196078431372,98.0 L 85.00196078431372,97.0 L 85.00196078431372,96.0 L 86.0,95.00196078431372 L 86.00196078431372,95.0 L 86.00196078431372,94.0 L 87.0,93.00196078431372 L 87.99803921568628,94.0 L 87.99803921568628,95.0 L 87.99803921568628,96.0 L 87.0,96.99803921568628 L 86.99803921568628,97.0 L 86.99803921568628,98.0 L 86.0,98.99803921568628" fill="none" stroke="black" stroke-width="1" /><path d="M 96.0,105.99803921568628 L 95.00196078431372,105.0 L 95.00196078431372,104.0 L 95.00196078431372,103.0 L 96.0,102.00196078431372 L 96.00196078431372,102.0 L 96.00196078431372,101.0 L 96.00196078431372,100.0 L 97.0,99.00196078431372 L 97.00196078431372,99.0 L 97.00196078431372,98.0 L 97.00196078431372,97.0 L 97.00196078431372,96.0 L 97.0,95.99803921568628 L 96.00196078431372,95.0 L 96.00196078431372,94.0 L 97.0,93.00196078431372 L 97.99803921568628,94.0 L 98.0,94.00196078431372 L 98.99803921568628,95.0 L 98.99803921568628,96.0 L 98.99803921568628,97.0 L 98.99803921568628,98.0 L 98.99803921568628,99.0 L 98.99803921568628,100.0 L 98.0,100.99803921568628 L 97.99803921568628,101.0 L 97.99803921568628,102.0 L 97.99803921568628,103.0 L 97.0,103.99803921568628 L 96.99803921568628,104.0 L 96.99803921568628,105.0 L 96.0,105.99803921568628" fill="none" stroke="black" stroke-width="1" /><path d="M 113.0,100.99803921568628 L 112.00196078431372,100.0 L 112.00196078431372,99.0 L 112.0,98.99803921568628 L 111.00196078431372,98.0 L 111.00196078431372,97.0 L 111.00196078431372,96.0 L 112.0,95.00196078431372 L 112.99803921568628,96.0 L 112.99803921568628,97.0 L 113.0,97.00196078431372 L 113.99803921568628,98.0 L 113.99803921568628,99.0 L 113.99803921568628,100.0 L 113.0,100.99803921568628" fill="none" stroke="black" stroke-width="1" /><path d="M 85.0,100.99803921568628 L 84.00196078431372,100.0 L 84.00196078431372,99.0 L 85.0,98.00196078431372 L 85.99803921568628,99.0 L 85.99803921568628,100.0 L 85.0,100.99803921568628" fill="none" stroke="black" stroke-width="1" /><path d="M 84.0,103.99803921568628 L 83.00196078431372,103.0 L 83.00196078431372,102.0 L 83.00196078431372,101.0 L 84.0,100.00196078431372 L 84.99803921568628,101.0 L 84.99803921568628,102.0 L 84.99803921568628,103.0 L 84.0,103.99803921568628" fill="none" stroke="black" stroke-width="1" /><path d="M 101.0,106.99803921568628 L 100.00196078431372,106.0 L 100.00196078431372,105.0 L 100.0,104.99803921568628 L 99.0,104.99803921568628 L 98.00196078431372,104.0 L 99.0,103.00196078431372 L 99.00196078431372,103.0 L 99.00196078431372,102.0 L 99.00196078431372,101.0 L 100.0,100.00196078431372 L 100.99803921568628,101.0 L 100.99803921568628,102.0 L 100.99803921568628,103.0 L 101.0,103.00196078431372 L 101.99803921568628,104.0 L 101.99803921568628,105.0 L 101.99803921568628,106.0 L 101.0,106.99803921568628" fill="none" stroke="black" stroke-width="1" /><path d="M 114.0,103.99803921568628 L 113.00196078431372,103.0 L 113.00196078431372,102.0 L 113.00196078431372,101.0 L 114.0,100.00196078431372 L 114.99803921568628,101.0 L 114.99803921568628,102.0 L 114.99803921568628,103.0 L 114.0,103.99803921568628" fill="none" stroke="black" stroke-width="1" /><path d="M 83.0,107.99803921568628 L 82.00196078431372,107.0 L 82.00196078431372,106.0 L 82.00196078431372,105.0 L 82.00196078431372,104.0 L 83.0,103.00196078431372 L 83.99803921568628,104.0 L 83.99803921568628,105.0 L 83.99803921568628,106.0 L 83.99803921568628,107.0 L 83.0,107.99803921568628" fill="none" stroke="black" stroke-width="1" /><path d="M 115.0,106.99803921568628 L 114.00196078431372,106.0 L 114.00196078431372,105.0 L 114.00196078431372,104.0 L 115.0,103.00196078431372 L 115.99803921568628,104.0 L 115.99803921568628,105.0 L 115.99803921568628,106.0 L 115.0,106.99803921568628" fill="none" stroke="black" stroke-width="1" /><path d="M 95.0,108.99803921568628 L 94.00196078431372,108.0 L 94.00196078431372,107.0 L 94.00196078431372,106.0 L 95.0,105.00196078431372 L 95.99803921568628,106.0 L 95.99803921568628,107.0 L 95.99803921568628,108.0 L 95.0,108.99803921568628" fill="none" stroke="black" stroke-width="1" /><path d="M 103.0,112.99803921568628 L 102.00196078431372,112.0 L 102.00196078431372,111.0 L 102.0,110.99803921568628 L 101.00196078431372,110.0 L 101.00196078431372,109.0 L 101.00196078431372,108.0 L 101.00196078431372,107.0 L 102.0,106.00196078431372 L 102.99803921568628,107.0 L 102.99803921568628,108.0 L 102.99803921568628,109.0 L 103.0,109.00196078431372 L 103.99803921568628,110.0 L 103.99803921568628,111.0 L 103.99803921568628,112.0 L 103.0,112.99803921568628" fill="none" stroke="black" stroke-width="1" /><path d="M 116.0,109.99803921568628 L 115.00196078431372,109.0 L 115.00196078431372,108.0 L 115.00196078431372,107.0 L 116.0,106.00196078431372 L 116.99803921568628,107.0 L 116.99803921568628,108.0 L 116.99803921568628,109.0 L 116.0,109.99803921568628" fill="none" stroke="black" stroke-width="1" /><path d="M 82.0,110.99803921568628 L 81.00196078431372,110.0 L 81.00196078431372,109.0 L 81.00196078431372,108.0 L 82.0,107.00196078431372 L 82.99803921568628,108.0 L 82.99803921568628,109.0 L 82.99803921568628,110.0 L 82.0,110.99803921568628" fill="none" stroke="black" stroke-width="1" /><path d="M 94.0,112.99803921568628 L 93.00196078431372,112.0 L 93.00196078431372,111.0 L 93.00196078431372,110.0 L 93.00196078431372,109.0 L 94.0,108.00196078431372 L 94.99803921568628,109.0 L 94.99803921568628,110.0 L 94.99803921568628,111.0 L 94.99803921568628,112.0 L 94.0,112.99803921568628" fill="none" stroke="black" stroke-width="1" /><path d="M 117.0,113.99803921568628 L 116.00196078431372,113.0 L 116.00196078431372,112.0 L 116.00196078431372,111.0 L 116.00196078431372,110.0 L 117.0,109.00196078431372 L 117.99803921568628,110.0 L 117.99803921568628,111.0 L 117.99803921568628,112.0 L 117.99803921568628,113.0 L 117.0,113.99803921568628" fill="none" stroke="black" stroke-width="1" /><path d="M 81.0,113.99803921568628 L 80.00196078431372,113.0 L 80.00196078431372,112.0 L 80.00196078431372,111.0 L 81.0,110.00196078431372 L 81.99803921568628,111.0 L 81.99803921568628,112.0 L 81.99803921568628,113.0 L 81.0,113.99803921568628" fill="none" stroke="black" stroke-width="1" /><path d="M 93.0,115.99803921568628 L 92.00196078431372,115.0 L 92.00196078431372,114.0 L 92.00196078431372,113.0 L 93.0,112.00196078431372 L 93.99803921568628,113.0 L 93.99803921568628,114.0 L 93.99803921568628,115.0 L 93.0,115.99803921568628" fill="none" stroke="black" stroke-width="1" /><path d="M 105.0,119.99803921568628 L 104.00196078431372,119.0 L 104.00196078431372,118.0 L 104.00196078431372,117.0 L 104.0,116.99803921568628 L 103.00196078431372,116.0 L 103.00196078431372,115.0 L 103.00196078431372,114.0 L 103.00196078431372,113.0 L 104.0,112.00196078431372 L 104.99803921568628,113.0 L 104.99803921568628,114.0 L 104.99803921568628,115.0 L 105.0,115.00196078431372 L 105.99803921568628,116.0 L 105.99803921568628,117.0 L 105.99803921568628,118.0 L 105.99803921568628,119.0 L 105.0,119.99803921568628" fill="none" stroke="black" stroke-width="1" /><path d="M 80.0,118.99803921568628 L 79.00196078431372,118.0 L 79.00196078431372,117.0 L 79.00196078431372,116.0 L 79.00196078431372,115.0 L 79.00196078431372,114.0 L 80.0,113.00196078431372 L 80.99803921568628,114.0 L 80.99803921568628,115.0 L 80.99803921568628,116.0 L 80.99803921568628,117.0 L 80.99803921568628,118.0 L 80.0,118.99803921568628" fill="none" stroke="black" stroke-width="1" /><path d="M 118.0,116.99803921568628 L 117.00196078431372,116.0 L 117.00196078431372,115.0 L 117.00196078431372,114.0 L 118.0,113.00196078431372 L 118.99803921568628,114.0 L 118.99803921568628,115.0 L 118.99803921568628,116.0 L 118.0,116.99803921568628" fill="none" stroke="black" stroke-width="1" /><path d="M 92.0,120.99803921568628 L 91.00196078431372,120.0 L 91.00196078431372,119.0 L 91.00196078431372,118.0 L 91.00196078431372,117.0 L 91.00196078431372,116.0 L 92.0,115.00196078431372 L 92.99803921568628,116.0 L 92.99803921568628,117.0 L 92.99803921568628,118.0 L 92.99803921568628,119.0 L 92.99803921568628,120.0 L 92.0,120.99803921568628" fill="none" stroke="black" stroke-width="1" /><path d="M 119.0,121.99803921568628 L 118.00196078431372,121.0 L 118.00196078431372,120.0 L 118.00196078431372,119.0 L 118.00196078431372,118.0 L 118.00196078431372,117.0 L 119.0,116.00196078431372 L 119.99803921568628,117.0 L 119.99803921568628,118.0 L 119.99803921568628,119.0 L 119.99803921568628,120.0 L 119.99803921568628,121.0 L 119.0,121.99803921568628" fill="none" stroke="black" stroke-width="1" /><path d="M 79.0,123.99803921568628 L 78.00196078431372,123.0 L 78.00196078431372,122.0 L 78.00196078431372,121.0 L 78.00196078431372,120.0 L 78.00196078431372,119.0 L 79.0,118.00196078431372 L 79.99803921568628,119.0 L 79.99803921568628,120.0 L 79.99803921568628,121.0 L 79.99803921568628,122.0 L 79.99803921568628,123.0 L 79.0,123.99803921568628" fill="none" stroke="black" stroke-width="1" /><path d="M 106.0,124.99803921568628 L 105.00196078431372,124.0 L 105.00196078431372,123.0 L 105.00196078431372,122.0 L 105.00196078431372,121.0 L 105.00196078431372,120.0 L 106.0,119.00196078431372 L 106.99803921568628,120.0 L 106.99803921568628,121.0 L 106.99803921568628,122.0 L 106.99803921568628,123.0 L 106.99803921568628,124.0 L 106.0,124.99803921568628" fill="none" stroke="black" stroke-width="1" /><path d="M 91.0,125.99803921568628 L 90.00196078431372,125.0 L 90.00196078431372,124.0 L 90.00196078431372,123.0 L 90.00196078431372,122.0 L 90.00196078431372,121.0 L 91.0,120.00196078431372 L 91.99803921568628,121.0 L 91.99803921568628,122.0 L 91.99803921568628,123.0 L 91.99803921568628,124.0 L 91.99803921568628,125.0 L 91.0,125.99803921568628" fill="none" stroke="black" stroke-width="1" /><path d="M 120.0,127.99803921568628 L 119.00196078431372,127.0 L 119.00196078431372,126.0 L 119.00196078431372,125.0 L 119.00196078431372,124.0 L 119.00196078431372,123.0 L 119.00196078431372,122.0 L 120.0,121.00196078431372 L 120.99803921568628,122.0 L 120.99803921568628,123.0 L 120.99803921568628,124.0 L 120.99803921568628,125.0 L 120.99803921568628,126.0 L 120.99803921568628,127.0 L 120.0,127.99803921568628" fill="none" stroke="black" stroke-width="1" /><path d="M 78.0,129.99803921568628 L 77.00196078431372,129.0 L 77.00196078431372,128.0 L 77.00196078431372,127.0 L 77.00196078431372,126.0 L 77.00196078431372,125.0 L 77.00196078431372,124.0 L 78.0,123.00196078431372 L 78.99803921568628,124.0 L 78.99803921568628,125.0 L 78.99803921568628,126.0 L 78.99803921568628,127.0 L 78.99803921568628,128.0 L 78.99803921568628,129.0 L 78.0,129.99803921568628" fill="none" stroke="black" stroke-width="1" /><path d="M 107.0,129.99803921568628 L 106.00196078431372,129.0 L 106.00196078431372,128.0 L 106.00196078431372,127.0 L 106.00196078431372,126.0 L 106.00196078431372,125.0 L 107.0,124.00196078431372 L 107.99803921568628,125.0 L 107.99803921568628,126.0 L 107.99803921568628,127.0 L 107.99803921568628,128.0 L 107.99803921568628,129.0 L 107.0,129.99803921568628" fill="none" stroke="black" stroke-width="1" /><path d="M 90.0,132.99803921568628 L 89.00196078431372,132.0 L 89.00196078431372,131.0 L 89.00196078431372,130.0 L 89.00196078431372,129.0 L 89.00196078431372,128.0 L 89.00196078431372,127.0 L 89.00196078431372,126.0 L 90.0,125.00196078431372 L 90.99803921568628,126.0 L 90.99803921568628,127.0 L 90.99803921568628,128.0 L 90.99803921568628,129.0 L 90.99803921568628,130.0 L 90.99803921568628,131.0 L 90.99803921568628,132.0 L 90.0,132.99803921568628" fill="none" stroke="black" stroke-width="1" /><path d="M 121.0,138.99803921568628 L 120.00196078431372,138.0 L 120.00196078431372,137.0 L 120.00196078431372,136.0 L 120.00196078431372,135.0 L 120.00196078431372,134.0 L 120.00196078431372,133.0 L 120.00196078431372,132.0 L 120.00196078431372,131.0 L 120.00196078431372,130.0 L 120.00196078431372,129.0 L 120.00196078431372,128.0 L 121.0,127.00196078431372 L 121.99803921568628,128.0 L 121.99803921568628,129.0 L 121.99803921568628,130.0 L 121.99803921568628,131.0 L 121.99803921568628,132.0 L 121.99803921568628,133.0 L 121.99803921568628,134.0 L 121.99803921568628,135.0 L 121.99803921568628,136.0 L 121.99803921568628,137.0 L 121.99803921568628,138.0 L 121.0,138.99803921568628" fill="none" stroke="black" stroke-width="1" /><path d="M 77.0,161.99803921568628 L 76.00196078431372,161.0 L 76.00196078431372,160.0 L 76.00196078431372,159.0 L 76.00196078431372,158.0 L 76.00196078431372,157.0 L 76.00196078431372,156.0 L 76.00196078431372,155.0 L 76.00196078431372,154.0 L 76.00196078431372,153.0 L 76.00196078431372,152.0 L 76.00196078431372,151.0 L 76.00196078431372,150.0 L 76.00196078431372,149.0 L 76.00196078431372,148.0 L 76.00196078431372,147.0 L 76.00196078431372,146.0 L 76.00196078431372,145.0 L 76.00196078431372,144.0 L 76.00196078431372,143.0 L 76.00196078431372,142.0 L 76.00196078431372,141.0 L 76.00196078431372,140.0 L 76.00196078431372,139.0 L 76.00196078431372,138.0 L 76.00196078431372,137.0 L 76.00196078431372,136.0 L 76.00196078431372,135.0 L 76.00196078431372,134.0 L 76.00196078431372,133.0 L 76.00196078431372,132.0 L 76.00196078431372,131.0 L 76.00196078431372,130.0 L 77.0,129.00196078431372 L 77.99803921568628,130.0 L 77.99803921568628,131.0 L 77.99803921568628,132.0 L 77.99803921568628,133.0 L 77.99803921568628,134.0 L 77.99803921568628,135.0 L 77.99803921568628,136.0 L 77.99803921568628,137.0 L 77.99803921568628,138.0 L 77.99803921568628,139.0 L 77.99803921568628,140.0 L 77.99803921568628,141.0 L 77.99803921568628,142.0 L 77.99803921568628,143.0 L 77.99803921568628,144.0 L 77.99803921568628,145.0 L 77.99803921568628,146.0 L 77.99803921568628,147.0 L 77.99803921568628,148.0 L 77.99803921568628,149.0 L 77.99803921568628,150.0 L 77.99803921568628,151.0 L 77.99803921568628,152.0 L 77.99803921568628,153.0 L 77.99803921568628,154.0 L 77.99803921568628,155.0 L 77.99803921568628,156.0 L 77.99803921568628,157.0 L 77.99803921568628,158.0 L 77.99803921568628,159.0 L 77.99803921568628,160.0 L 77.99803921568628,161.0 L 77.0,161.99803921568628" fill="none" stroke="black" stroke-width="1" /><path d="M 108.0,136.99803921568628 L 107.00196078431372,136.0 L 107.00196078431372,135.0 L 107.00196078431372,134.0 L 107.00196078431372,133.0 L 107.00196078431372,132.0 L 107.00196078431372,131.0 L 107.00196078431372,130.0 L 108.0,129.00196078431372 L 108.99803921568628,130.0 L 108.99803921568628,131.0 L 108.99803921568628,132.0 L 108.99803921568628,133.0 L 108.99803921568628,134.0 L 108.99803921568628,135.0 L 108.99803921568628,136.0 L 108.0,136.99803921568628" fill="none" stroke="black" stroke-width="1" /><path d="M 89.0,144.99803921568628 L 88.00196078431372,144.0 L 88.00196078431372,143.0 L 88.00196078431372,142.0 L 88.00196078431372,141.0 L 88.00196078431372,140.0 L 88.00196078431372,139.0 L 88.00196078431372,138.0 L 88.00196078431372,137.0 L 88.00196078431372,136.0 L 88.00196078431372,135.0 L 88.00196078431372,134.0 L 88.00196078431372,133.0 L 89.0,132.00196078431372 L 89.99803921568628,133.0 L 89.99803921568628,134.0 L 89.99803921568628,135.0 L 89.99803921568628,136.0 L 89.99803921568628,137.0 L 89.99803921568628,138.0 L 89.99803921568628,139.0 L 89.99803921568628,140.0 L 89.99803921568628,141.0 L 89.99803921568628,142.0 L 89.99803921568628,143.0 L 89.99803921568628,144.0 L 89.0,144.99803921568628" fill="none" stroke="black" stroke-width="1" /><path d="M 109.0,158.99803921568628 L 108.00196078431372,158.0 L 108.00196078431372,157.0 L 108.00196078431372,156.0 L 108.00196078431372,155.0 L 108.00196078431372,154.0 L 108.00196078431372,153.0 L 108.00196078431372,152.0 L 108.00196078431372,151.0 L 108.00196078431372,150.0 L 108.00196078431372,149.0 L 108.00196078431372,148.0 L 108.00196078431372,147.0 L 108.00196078431372,146.0 L 108.00196078431372,145.0 L 108.00196078431372,144.0 L 108.00196078431372,143.0 L 108.00196078431372,142.0 L 108.00196078431372,141.0 L 108.00196078431372,140.0 L 108.00196078431372,139.0 L 108.00196078431372,138.0 L 108.00196078431372,137.0 L 109.0,136.00196078431372 L 109.99803921568628,137.0 L 109.99803921568628,138.0 L 109.99803921568628,139.0 L 109.99803921568628,140.0 L 109.99803921568628,141.0 L 109.99803921568628,142.0 L 109.99803921568628,143.0 L 109.99803921568628,144.0 L 109.99803921568628,145.0 L 109.99803921568628,146.0 L 109.99803921568628,147.0 L 109.99803921568628,148.0 L 109.99803921568628,149.0 L 109.99803921568628,150.0 L 109.99803921568628,151.0 L 109.99803921568628,152.0 L 109.99803921568628,153.0 L 109.99803921568628,154.0 L 109.99803921568628,155.0 L 109.99803921568628,156.0 L 109.99803921568628,157.0 L 109.99803921568628,158.0 L 109.0,158.99803921568628" fill="none" stroke="black" stroke-width="1" /><path d="M 122.0,143.99803921568628 L 121.00196078431372,143.0 L 121.00196078431372,142.0 L 121.00196078431372,141.0 L 121.00196078431372,140.0 L 121.00196078431372,139.0 L 122.0,138.00196078431372 L 122.99803921568628,139.0 L 122.99803921568628,140.0 L 122.99803921568628,141.0 L 122.99803921568628,142.0 L 122.99803921568628,143.0 L 122.0,143.99803921568628" fill="none" stroke="black" stroke-width="1" /><path d="M 121.0,145.99803921568628 L 120.00196078431372,145.0 L 120.00196078431372,144.0 L 121.0,143.00196078431372 L 121.99803921568628,144.0 L 121.99803921568628,145.0 L 121.0,145.99803921568628" fill="none" stroke="black" stroke-width="1" /><path d="M 88.0,148.99803921568628 L 87.00196078431372,148.0 L 87.00196078431372,147.0 L 87.00196078431372,146.0 L 87.00196078431372,145.0 L 88.0,144.00196078431372 L 88.99803921568628,145.0 L 88.99803921568628,146.0 L 88.99803921568628,147.0 L 88.99803921568628,148.0 L 88.0,148.99803921568628" fill="none" stroke="black" stroke-width="1" /><path d="M 122.0,147.99803921568628 L 121.00196078431372,147.0 L 121.00196078431372,146.0 L 122.0,145.00196078431372 L 122.99803921568628,146.0 L 122.99803921568628,147.0 L 122.0,147.99803921568628" fill="none" stroke="black" stroke-width="1" /><path d="M 121.0,148.99803921568628 L 120.00196078431372,148.0 L 121.0,147.00196078431372 L 121.99803921568628,148.0 L 121.0,148.99803921568628" fill="none" stroke="black" stroke-width="1" /><path d="M 89.0,158.99803921568628 L 88.00196078431372,158.0 L 88.00196078431372,157.0 L 88.00196078431372,156.0 L 88.00196078431372,155.0 L 88.00196078431372,154.0 L 88.00196078431372,153.0 L 88.00196078431372,152.0 L 88.00196078431372,151.0 L 88.00196078431372,150.0 L 88.00196078431372,149.0 L 89.0,148.00196078431372 L 89.99803921568628,149.0 L 89.99803921568628,150.0 L 89.99803921568628,151.0 L 89.99803921568628,152.0 L 89.99803921568628,153.0 L 89.99803921568628,154.0 L 89.99803921568628,155.0 L 89.99803921568628,156.0 L 89.99803921568628,157.0 L 89.99803921568628,158.0 L 89.0,158.99803921568628" fill="none" stroke="black" stroke-width="1" /><path d="M 122.0,154.99803921568628 L 121.00196078431372,154.0 L 121.00196078431372,153.0 L 121.00196078431372,152.0 L 121.00196078431372,151.0 L 121.00196078431372,150.0 L 121.00196078431372,149.0 L 122.0,148.00196078431372 L 122.99803921568628,149.0 L 122.99803921568628,150.0 L 122.99803921568628,151.0 L 122.99803921568628,152.0 L 122.99803921568628,153.0 L 122.99803921568628,154.0 L 122.0,154.99803921568628" fill="none" stroke="black" stroke-width="1" /><path d="M 121.0,163.99803921568628 L 120.00196078431372,163.0 L 120.00196078431372,162.0 L 120.00196078431372,161.0 L 120.00196078431372,160.0 L 120.00196078431372,159.0 L 120.00196078431372,158.0 L 120.00196078431372,157.0 L 120.00196078431372,156.0 L 120.00196078431372,155.0 L 121.0,154.00196078431372 L 121.99803921568628,155.0 L 121.99803921568628,156.0 L 121.99803921568628,157.0 L 121.99803921568628,158.0 L 121.99803921568628,159.0 L 121.99803921568628,160.0 L 121.99803921568628,161.0 L 121.99803921568628,162.0 L 121.99803921568628,163.0 L 121.0,163.99803921568628" fill="none" stroke="black" stroke-width="1" /><path d="M 90.0,165.99803921568628 L 89.00196078431372,165.0 L 89.00196078431372,164.0 L 89.00196078431372,163.0 L 89.00196078431372,162.0 L 89.00196078431372,161.0 L 89.00196078431372,160.0 L 89.00196078431372,159.0 L 90.0,158.00196078431372 L 90.99803921568628,159.0 L 90.99803921568628,160.0 L 90.99803921568628,161.0 L 90.99803921568628,162.0 L 90.99803921568628,163.0 L 90.99803921568628,164.0 L 90.99803921568628,165.0 L 90.0,165.99803921568628" fill="none" stroke="black" stroke-width="1" /><path d="M 108.0,163.99803921568628 L 107.00196078431372,163.0 L 107.00196078431372,162.0 L 107.00196078431372,161.0 L 107.00196078431372,160.0 L 107.00196078431372,159.0 L 108.0,158.00196078431372 L 108.99803921568628,159.0 L 108.99803921568628,160.0 L 108.99803921568628,161.0 L 108.99803921568628,162.0 L 108.99803921568628,163.0 L 108.0,163.99803921568628" fill="none" stroke="black" stroke-width="1" /><path d="M 78.0,167.99803921568628 L 77.00196078431372,167.0 L 77.00196078431372,166.0 L 77.00196078431372,165.0 L 77.00196078431372,164.0 L 77.00196078431372,163.0 L 77.00196078431372,162.0 L 78.0,161.00196078431372 L 78.99803921568628,162.0 L 78.99803921568628,163.0 L 78.99803921568628,164.0 L 78.99803921568628,165.0 L 78.99803921568628,166.0 L 78.99803921568628,167.0 L 78.0,167.99803921568628" fill="none" stroke="black" stroke-width="1" /><path d="M 101.0,173.99803921568628 L 100.0,173.99803921568628 L 99.0,173.99803921568628 L 98.00196078431372,173.0 L 99.0,172.00196078431372 L 100.0,172.00196078431372 L 100.00196078431372,172.0 L 101.0,171.00196078431372 L 101.00196078431372,171.0 L 102.0,170.00196078431372 L 102.00196078431372,170.0 L 103.0,169.00196078431372 L 103.00196078431372,169.0 L 104.0,168.00196078431372 L 104.00196078431372,168.0 L 105.0,167.00196078431372 L 105.00196078431372,167.0 L 105.00196078431372,166.0 L 106.0,165.00196078431372 L 106.00196078431372,165.0 L 106.00196078431372,164.0 L 107.0,163.00196078431372 L 107.99803921568628,164.0 L 107.99803921568628,165.0 L 107.99803921568628,166.0 L 107.0,166.99803921568628 L 106.99803921568628,167.0 L 106.99803921568628,168.0 L 106.0,168.99803921568628 L 105.99803921568628,169.0 L 105.0,169.99803921568628 L 104.99803921568628,170.0 L 104.0,170.99803921568628 L 103.99803921568628,171.0 L 103.0,171.99803921568628 L 102.99803921568628,172.0 L 102.0,172.99803921568628 L 101.99803921568628,173.0 L 101.0,173.99803921568628" fill="none" stroke="black" stroke-width="1" /><path d="M 120.0,165.99803921568628 L 119.00196078431372,165.0 L 119.00196078431372,164.0 L 120.0,163.00196078431372 L 120.99803921568628,164.0 L 120.99803921568628,165.0 L 120.0,165.99803921568628" fill="none" stroke="black" stroke-width="1" /><path d="M 91.0,169.99803921568628 L 90.00196078431372,169.0 L 90.00196078431372,168.0 L 90.00196078431372,167.0 L 90.00196078431372,166.0 L 91.0,165.00196078431372 L 91.99803921568628,166.0 L 91.99803921568628,167.0 L 91.99803921568628,168.0 L 91.99803921568628,169.0 L 91.0,169.99803921568628" fill="none" stroke="black" stroke-width="1" /><path d="M 116.0,172.99803921568628 L 115.00196078431372,172.0 L 115.00196078431372,171.0 L 116.0,170.00196078431372 L 116.00196078431372,170.0 L 117.0,169.00196078431372 L 117.00196078431372,169.0 L 117.00196078431372,168.0 L 118.0,167.00196078431372 L 118.00196078431372,167.0 L 118.00196078431372,166.0 L 119.0,165.00196078431372 L 119.99803921568628,166.0 L 119.99803921568628,167.0 L 119.99803921568628,168.0 L 119.0,168.99803921568628 L 118.99803921568628,169.0 L 118.99803921568628,170.0 L 118.0,170.99803921568628 L 117.99803921568628,171.0 L 117.0,171.99803921568628 L 116.99803921568628,172.0 L 116.0,172.99803921568628" fill="none" stroke="black" stroke-width="1" /><path d="M 79.0,170.99803921568628 L 78.00196078431372,170.0 L 78.00196078431372,169.0 L 78.00196078431372,168.0 L 79.0,167.00196078431372 L 79.99803921568628,168.0 L 79.99803921568628,169.0 L 79.99803921568628,170.0 L 79.0,170.99803921568628" fill="none" stroke="black" stroke-width="1" /><path d="M 98.0,177.99803921568628 L 97.0,177.99803921568628 L 96.0,177.99803921568628 L 95.00196078431372,177.0 L 95.0,176.99803921568628 L 94.00196078431372,176.0 L 94.0,175.99803921568628 L 93.00196078431372,175.0 L 93.00196078431372,174.0 L 93.0,173.99803921568628 L 92.00196078431372,173.0 L 92.0,172.99803921568628 L 91.00196078431372,172.0 L 91.00196078431372,171.0 L 91.00196078431372,170.0 L 92.0,169.00196078431372 L 92.99803921568628,170.0 L 92.99803921568628,171.0 L 93.0,171.00196078431372 L 93.99803921568628,172.0 L 94.0,172.00196078431372 L 94.99803921568628,173.0 L 94.99803921568628,174.0 L 95.0,174.00196078431372 L 95.99803921568628,175.0 L 96.0,175.00196078431372 L 96.99803921568628,176.0 L 97.0,176.00196078431372 L 98.0,176.00196078431372 L 98.99803921568628,177.0 L 98.0,177.99803921568628" fill="none" stroke="black" stroke-width="1" /><path d="M 86.0,182.99803921568628 L 85.00196078431372,182.0 L 85.0,181.99803921568628 L 84.00196078431372,181.0 L 84.0,180.99803921568628 L 83.00196078431372,180.0 L 83.0,179.99803921568628 L 82.00196078431372,179.0 L 82.00196078431372,178.0 L 82.0,177.99803921568628 L 81.00196078431372,177.0 L 81.00196078431372,176.0 L 81.0,175.99803921568628 L 80.00196078431372,175.0 L 80.00196078431372,174.0 L 80.0,173.99803921568628 L 79.00196078431372,173.0 L 79.00196078431372,172.0 L 79.00196078431372,171.0 L 80.0,170.00196078431372 L 80.99803921568628,171.0 L 80.99803921568628,172.0 L 81.0,172.00196078431372 L 81.99803921568628,173.0 L 81.99803921568628,174.0 L 82.0,174.00196078431372 L 82.99803921568628,175.0 L 82.99803921568628,176.0 L 83.0,176.00196078431372 L 83.99803921568628,177.0 L 83.99803921568628,178.0 L 84.0,178.00196078431372 L 84.99803921568628,179.0 L 85.0,179.00196078431372 L 85.99803921568628,180.0 L 86.0,180.00196078431372 L 86.99803921568628,181.0 L 86.99803921568628,182.0 L 86.0,182.99803921568628" fill="none" stroke="black" stroke-width="1" /><path d="M 98.0,172.99803921568628 L 97.0,172.99803921568628 L 96.00196078431372,172.0 L 97.0,171.00196078431372 L 98.0,171.00196078431372 L 98.99803921568628,172.0 L 98.0,172.99803921568628" fill="none" stroke="black" stroke-width="1" /><path d="M 117.0,174.99803921568628 L 116.00196078431372,174.0 L 116.00196078431372,173.0 L 117.0,172.00196078431372 L 117.99803921568628,173.0 L 117.99803921568628,174.0 L 117.0,174.99803921568628" fill="none" stroke="black" stroke-width="1" /><path d="M 116.0,175.99803921568628 L 115.0,175.99803921568628 L 114.00196078431372,175.0 L 115.0,174.00196078431372 L 116.0,174.00196078431372 L 116.99803921568628,175.0 L 116.0,175.99803921568628" fill="none" stroke="black" stroke-width="1" /><path d="M 112.0,177.99803921568628 L 111.0,177.99803921568628 L 110.00196078431372,177.0 L 111.0,176.00196078431372 L 111.00196078431372,176.0 L 112.0,175.00196078431372 L 113.0,175.00196078431372 L 114.0,175.00196078431372 L 114.99803921568628,176.0 L 114.0,176.99803921568628 L 113.0,176.99803921568628 L 112.99803921568628,177.0 L 112.0,177.99803921568628" fill="none" stroke="black" stroke-width="1" /><path d="M 110.0,184.99803921568628 L 109.0,184.99803921568628 L 108.00196078431372,184.0 L 109.0,183.00196078431372 L 109.00196078431372,183.0 L 110.0,182.00196078431372 L 110.00196078431372,182.0 L 111.0,181.00196078431372 L 111.00196078431372,181.0 L 112.0,180.00196078431372 L 112.00196078431372,180.0 L 113.0,179.00196078431372 L 113.00196078431372,179.0 L 114.0,178.00196078431372 L 114.00196078431372,178.0 L 115.0,177.00196078431372 L 115.00196078431372,177.0 L 116.0,176.00196078431372 L 116.00196078431372,176.0 L 117.0,175.00196078431372 L 117.99803921568628,176.0 L 117.99803921568628,177.0 L 117.0,177.99803921568628 L 116.99803921568628,178.0 L 116.0,178.99803921568628 L 115.99803921568628,179.0 L 115.0,179.99803921568628 L 114.99803921568628,180.0 L 114.0,180.99803921568628 L 113.99803921568628,181.0 L 113.0,181.99803921568628 L 112.99803921568628,182.0 L 112.0,182.99803921568628 L 111.99803921568628,183.0 L 111.0,183.99803921568628 L 110.99803921568628,184.0 L 110.0,184.99803921568628" fill="none" stroke="black" stroke-width="1" /><path d="M 110.0,178.99803921568628 L 109.0,178.99803921568628 L 108.0,178.99803921568628 L 107.0,178.99803921568628 L 106.0,178.99803921568628 L 105.0,178.99803921568628 L 104.0,178.99803921568628 L 103.0,178.99803921568628 L 102.0,178.99803921568628 L 101.0,178.99803921568628 L 100.0,178.99803921568628 L 99.0,178.99803921568628 L 98.00196078431372,178.0 L 99.0,177.00196078431372 L 100.0,177.00196078431372 L 101.0,177.00196078431372 L 102.0,177.00196078431372 L 103.0,177.00196078431372 L 104.0,177.00196078431372 L 105.0,177.00196078431372 L 106.0,177.00196078431372 L 107.0,177.00196078431372 L 108.0,177.00196078431372 L 109.0,177.00196078431372 L 110.0,177.00196078431372 L 110.99803921568628,178.0 L 110.0,178.99803921568628" fill="none" stroke="black" stroke-width="1" /><path d="M 95.0,187.99803921568628 L 94.0,187.99803921568628 L 93.0,187.99803921568628 L 92.0,187.99803921568628 L 91.00196078431372,187.0 L 91.0,186.99803921568628 L 90.0,186.99803921568628 L 89.00196078431372,186.0 L 89.0,185.99803921568628 L 88.00196078431372,185.0 L 88.0,184.99803921568628 L 87.00196078431372,184.0 L 87.0,183.99803921568628 L 86.00196078431372,183.0 L 87.0,182.00196078431372 L 88.0,182.00196078431372 L 88.99803921568628,183.0 L 89.0,183.00196078431372 L 89.99803921568628,184.0 L 90.0,184.00196078431372 L 90.99803921568628,185.0 L 91.0,185.00196078431372 L 92.0,185.00196078431372 L 92.99803921568628,186.0 L 93.0,186.00196078431372 L 94.0,186.00196078431372 L 95.0,186.00196078431372 L 95.99803921568628,187.0 L 95.0,187.99803921568628" fill="none" stroke="black" stroke-width="1" /><path d="M 105.0,187.99803921568628 L 104.0,187.99803921568628 L 103.0,187.99803921568628 L 102.0,187.99803921568628 L 101.00196078431372,187.0 L 102.0,186.00196078431372 L 103.0,186.00196078431372 L 104.0,186.00196078431372 L 104.00196078431372,186.0 L 105.0,185.00196078431372 L 106.0,185.00196078431372 L 106.00196078431372,185.0 L 107.0,184.00196078431372 L 108.0,184.00196078431372 L 108.99803921568628,185.0 L 108.0,185.99803921568628 L 107.99803921568628,186.0 L 107.0,186.99803921568628 L 106.0,186.99803921568628 L 105.99803921568628,187.0 L 105.0,187.99803921568628" fill="none" stroke="black" stroke-width="1" /><path d="M 101.0,188.99803921568628 L 100.0,188.99803921568628 L 99.0,188.99803921568628 L 98.0,188.99803921568628 L 97.0,188.99803921568628 L 96.0,188.99803921568628 L 95.00196078431372,188.0 L 96.0,187.00196078431372 L 97.0,187.00196078431372 L 98.0,187.00196078431372 L 99.0,187.00196078431372 L 100.0,187.00196078431372 L 101.0,187.00196078431372 L 101.99803921568628,188.0 L 101.0,188.99803921568628" fill="none" stroke="black" stroke-width="1" /></svg>